<?xml version="1.0" encoding="UTF-8"?>
<svg version="1.1" xmlns="http://www.w3.org/2000/svg" width="505" height="494">
<path d="M0 0 C0.8660083 0.60569824 0.8660083 0.60569824 1.74951172 1.22363281 C28.21349338 20.07159242 48.09189459 46.47644189 59 77 C59.44085938 78.18207031 59.88171875 79.36414063 60.3359375 80.58203125 C71.96778172 114.24388348 70.79426432 151.63768268 59 185 C58.74234863 185.73025391 58.48469727 186.46050781 58.21923828 187.21289062 C51.83271529 204.83696789 42.20808191 220.81355084 30 235 C29.34402832 235.76546143 29.34402832 235.76546143 28.67480469 236.54638672 C23.50945951 242.51990203 18.14361566 248.03991801 12 253 C11.06800781 253.76957031 10.13601563 254.53914063 9.17578125 255.33203125 C1.00347784 261.94336176 -7.66814624 267.1876911 -17 272 C-17.93199219 272.48146484 -17.93199219 272.48146484 -18.8828125 272.97265625 C-39.41984073 283.41595358 -61.94106751 289.34604754 -85 290 C-86.01449219 290.03996094 -87.02898437 290.07992188 -88.07421875 290.12109375 C-129.359169 291.00170122 -169.80917292 274.88251281 -200 247 C-200.87011719 246.21238281 -201.74023438 245.42476563 -202.63671875 244.61328125 C-224.74355683 223.64560391 -238.59472226 195.22472141 -246 166 C-246.17934082 165.31131836 -246.35868164 164.62263672 -246.54345703 163.91308594 C-253.57787145 135.53792074 -249.74978537 103.16826157 -240 76 C-239.55914062 74.76121094 -239.11828125 73.52242188 -238.6640625 72.24609375 C-224.43783456 33.85825606 -193.38328694 2.77149106 -156.49047852 -14.23388672 C-105.92104512 -36.6568867 -45.51504538 -32.04043797 0 0 Z " fill="#4E4E4E" transform="translate(342,123)"/>
<path d="M0 0 C0.91104492 -0.00945648 1.82208984 -0.01891296 2.76074219 -0.02865601 C3.74204102 -0.02258331 4.72333984 -0.01651062 5.734375 -0.01025391 C6.7440332 -0.01312408 7.75369141 -0.01599426 8.79394531 -0.01895142 C10.92904216 -0.02099329 13.06415766 -0.01545487 15.19921875 -0.00292969 C18.47177871 0.01312181 21.74310356 -0.00277465 25.015625 -0.02197266 C27.0885444 -0.01999025 29.16146303 -0.01614662 31.234375 -0.01025391 C32.70632324 -0.01936295 32.70632324 -0.01936295 34.20800781 -0.02865601 C35.5745752 -0.01447128 35.5745752 -0.01447128 36.96875 0 C38.17096191 0.00358017 38.17096191 0.00358017 39.39746094 0.00723267 C41.9996541 0.48224403 42.8852613 1.31764116 44.484375 3.38818359 C44.91674805 5.56469727 44.91674805 5.56469727 44.99609375 8.05615234 C45.03154297 8.94882813 45.06699219 9.84150391 45.10351562 10.76123047 C45.12607422 11.69 45.14863281 12.61876953 45.171875 13.57568359 C45.20603516 14.51605469 45.24019531 15.45642578 45.27539062 16.42529297 C45.35785718 18.74613752 45.42700903 21.06660508 45.484375 23.38818359 C46.474375 21.90318359 46.474375 21.90318359 47.484375 20.38818359 C52.76120628 19.17917213 58.25140079 18.76445114 63.484375 20.38818359 C69.44755801 24.29345371 73.59297799 30.55108807 77.484375 36.38818359 C77.62658565 38.99063857 77.67240432 41.47936043 77.609375 44.07568359 C77.60035156 44.77757812 77.59132813 45.47947266 77.58203125 46.20263672 C77.55851204 47.93129885 77.52264213 49.65978505 77.484375 51.38818359 C79.134375 51.71818359 80.784375 52.04818359 82.484375 52.38818359 C82.484375 55.02818359 82.484375 57.66818359 82.484375 60.38818359 C80.834375 60.71818359 79.184375 61.04818359 77.484375 61.38818359 C77.154375 63.36818359 76.824375 65.34818359 76.484375 67.38818359 C74.834375 67.38818359 73.184375 67.38818359 71.484375 67.38818359 C71.525625 68.46068359 71.566875 69.53318359 71.609375 70.63818359 C71.43786337 75.78353243 71.43786337 75.78353243 69.484375 78.38818359 C66.57640743 80.71455765 64.70078006 81.36113296 60.984375 81.82568359 C56.8870339 81.31351596 55.37174797 80.27555657 52.484375 77.38818359 C50.484375 74.38818359 50.484375 74.38818359 50.484375 67.38818359 C42.894375 67.38818359 35.304375 67.38818359 27.484375 67.38818359 C27.484375 70.02818359 27.484375 72.66818359 27.484375 75.38818359 C25.046875 78.32568359 25.046875 78.32568359 22.484375 80.38818359 C22.154375 80.71818359 21.824375 81.04818359 21.484375 81.38818359 C14.40820792 81.97786418 14.40820792 81.97786418 10.546875 79.51318359 C8.47214446 77.37558243 7.53541566 76.40491356 7.38671875 73.44287109 C7.41927083 71.42464193 7.45182292 69.40641276 7.484375 67.38818359 C4.844375 67.38818359 2.204375 67.38818359 -0.515625 67.38818359 C-0.45375 68.44005859 -0.391875 69.49193359 -0.328125 70.57568359 C-0.52667112 74.61278808 -1.02252563 76.27180938 -3.515625 79.38818359 C-6.93722095 81.95438056 -10.36406633 81.89802413 -14.515625 81.38818359 C-17.390625 78.95068359 -17.390625 78.95068359 -19.515625 76.38818359 C-19.845625 76.05818359 -20.175625 75.72818359 -20.515625 75.38818359 C-20.65677661 72.71759508 -20.55809607 70.06386122 -20.515625 67.38818359 C-21.44375 67.45005859 -22.371875 67.51193359 -23.328125 67.57568359 C-26.515625 67.38818359 -26.515625 67.38818359 -28.19213867 66.16381836 C-29.88177134 63.89694908 -29.8892489 62.59897684 -29.87890625 59.79052734 C-29.87826172 58.906875 -29.87761719 58.02322266 -29.87695312 57.11279297 C-29.86083984 56.19304687 -29.84472656 55.27330078 -29.828125 54.32568359 C-29.83134766 53.40207031 -29.83457031 52.47845703 -29.83789062 51.52685547 C-29.78267673 44.65523532 -29.78267673 44.65523532 -27.515625 42.38818359 C-25.015625 42.13818359 -25.015625 42.13818359 -22.515625 42.38818359 C-20.515625 44.38818359 -20.515625 44.38818359 -20.390625 47.51318359 C-20.431875 48.46193359 -20.473125 49.41068359 -20.515625 50.38818359 C-19.195625 50.38818359 -17.875625 50.38818359 -16.515625 50.38818359 C-16.56275635 49.46183105 -16.6098877 48.53547852 -16.65844727 47.58105469 C-18.07463135 15.60437484 -18.07463135 15.60437484 -9.77734375 5.58349609 C-9.03097656 4.85904297 -8.28460938 4.13458984 -7.515625 3.38818359 C-7.06711182 2.85591156 -6.61859863 2.32363953 -6.15649414 1.77523804 C-4.00885204 -0.04020017 -2.78838923 0.00830378 0 0 Z " fill="#4F4F4F" transform="translate(224.515625,216.61181640625)"/>
<path d="M0 0 C0.91427261 -0.00945648 1.82854523 -0.01891296 2.77052307 -0.02865601 C3.75495895 -0.02258331 4.73939484 -0.01651062 5.75366211 -0.01025391 C7.27170692 -0.01455917 7.27170692 -0.01455917 8.82041931 -0.01895142 C10.95971232 -0.02099311 13.09902394 -0.01545593 15.23828125 -0.00292969 C18.521825 0.01313867 21.80414085 -0.00278382 25.08764648 -0.02197266 C27.16382109 -0.01999057 29.23999492 -0.01614761 31.31616211 -0.01025391 C32.79585228 -0.01936295 32.79585228 -0.01936295 34.30543518 -0.02865601 C35.21655563 -0.01919952 36.12767609 -0.00974304 37.06640625 0 C37.87010147 0.00238678 38.67379669 0.00477356 39.50184631 0.00723267 C40.47534279 0.19580338 40.47534279 0.19580338 41.46850586 0.38818359 C43.57334332 3.54543978 43.71571176 4.26192971 43.69555664 7.85961914 C43.69540558 8.76032639 43.69525452 9.66103363 43.69509888 10.58903503 C43.68477631 11.55787125 43.67445374 12.52670746 43.66381836 13.52490234 C43.66098846 14.51947952 43.65815857 15.5140567 43.65524292 16.53877258 C43.64404075 19.7178649 43.618936 22.89667631 43.59350586 26.07568359 C43.58347611 28.2299764 43.57435025 30.38427362 43.56616211 32.53857422 C43.54410132 37.82187331 43.51062342 43.10500839 43.46850586 48.38818359 C42.47850586 48.88318359 42.47850586 48.88318359 41.46850586 49.38818359 C41.13850586 34.53818359 40.80850586 19.68818359 40.46850586 4.38818359 C29.85694336 4.20255859 29.85694336 4.20255859 19.03100586 4.01318359 C16.81583252 3.93793457 14.60065918 3.86268555 12.31835938 3.78515625 C1.93882103 3.42904292 1.93882103 3.42904292 -6.91259766 8.02246094 C-13.44760428 16.10255961 -13.7926942 25.7980257 -13.59399414 35.76318359 C-13.57336914 40.58943359 -13.55274414 45.41568359 -13.53149414 50.38818359 C3.62850586 50.38818359 20.78850586 50.38818359 38.46850586 50.38818359 C37.97350586 51.37818359 37.97350586 51.37818359 37.46850586 52.38818359 C29.66275391 52.41131151 21.85700991 52.42910098 14.05123234 52.43999577 C10.42704626 52.44522361 6.80288356 52.45231947 3.17871094 52.46362305 C-0.31609389 52.47445544 -3.81087618 52.48046117 -7.30569649 52.48306084 C-9.29388803 52.4858191 -11.28207045 52.49363047 -13.27024841 52.5014801 C-14.471418 52.50155563 -15.67258759 52.50163116 -16.91015625 52.50170898 C-18.50566566 52.5050399 -18.50566566 52.5050399 -20.13340759 52.50843811 C-22.53149414 52.38818359 -22.53149414 52.38818359 -23.53149414 51.38818359 C-23.57213246 49.72201244 -23.57421514 48.05430265 -23.53149414 46.38818359 C-24.19149414 46.38818359 -24.85149414 46.38818359 -25.53149414 46.38818359 C-25.20149414 51.66818359 -24.87149414 56.94818359 -24.53149414 62.38818359 C-22.05649414 59.91318359 -22.05649414 59.91318359 -19.53149414 57.38818359 C-15.42268536 55.05615699 -11.16456088 54.78861025 -6.53149414 55.38818359 C-2.93237999 56.81424769 0.05405897 58.30305701 2.46850586 61.38818359 C2.46850586 62.04818359 2.46850586 62.70818359 2.46850586 63.38818359 C3.12850586 63.38818359 3.78850586 63.38818359 4.46850586 63.38818359 C4.73663086 62.79005859 5.00475586 62.19193359 5.28100586 61.57568359 C6.8001232 58.77730955 8.15840324 56.92192911 11.15600586 55.70068359 C17.56967703 54.83397127 21.89448182 54.88821501 27.46850586 58.38818359 C29.34350586 59.95068359 29.34350586 59.95068359 30.46850586 61.38818359 C30.46850586 62.04818359 30.46850586 62.70818359 30.46850586 63.38818359 C35.74850586 63.38818359 41.02850586 63.38818359 46.46850586 63.38818359 C46.46850586 61.07818359 46.46850586 58.76818359 46.46850586 56.38818359 C47.12850586 56.38818359 47.78850586 56.38818359 48.46850586 56.38818359 C48.96350586 58.36818359 48.96350586 58.36818359 49.46850586 60.38818359 C50.12850586 60.38818359 50.78850586 60.38818359 51.46850586 60.38818359 C51.46850586 61.70818359 51.46850586 63.02818359 51.46850586 64.38818359 C52.31413086 63.72818359 53.15975586 63.06818359 54.03100586 62.38818359 C57.98745331 60.08625053 59.96732622 59.89714581 64.46850586 60.38818359 C67.40600586 61.38818359 67.40600586 61.38818359 69.46850586 62.38818359 C65.10650399 59.94120694 61.44157102 58.88549011 56.46850586 58.38818359 C56.79850586 57.39818359 57.12850586 56.40818359 57.46850586 55.38818359 C58.84164177 55.27833272 60.21745099 55.20176369 61.59350586 55.13818359 C62.35920898 55.09177734 63.12491211 55.04537109 63.91381836 54.99755859 C67.44021109 55.53676237 69.63223541 57.30003086 72.46850586 59.38818359 C72.67388489 55.88906664 72.79680527 52.39151693 72.90600586 48.88818359 C72.99398437 47.41478516 72.99398437 47.41478516 73.08374023 45.91162109 C73.21403366 40.32761705 72.82545583 37.11657964 69.04663086 32.85302734 C68.42046875 32.24837646 67.79430664 31.64372559 67.14916992 31.02075195 C65.46850586 29.38818359 65.46850586 29.38818359 63.78100586 26.45068359 C59.7438936 22.8500159 54.72124004 23.5594684 49.46850586 23.38818359 C49.46850586 30.97818359 49.46850586 38.56818359 49.46850586 46.38818359 C46.46850586 43.38818359 46.46850586 43.38818359 46.11206055 41.04394531 C46.12140625 40.14434082 46.13075195 39.24473633 46.14038086 38.31787109 C46.14553711 37.33947266 46.15069336 36.36107422 46.15600586 35.35302734 C46.17663086 34.33337891 46.19725586 33.31373047 46.21850586 32.26318359 C46.22366211 31.23580078 46.22881836 30.20841797 46.23413086 29.14990234 C46.31452972 21.54215973 46.31452972 21.54215973 47.46850586 20.38818359 C53.30662233 19.36848797 60.1467135 18.23316119 65.36743164 21.62011719 C70.18616785 25.89111792 73.91083962 31.05168424 77.46850586 36.38818359 C77.61071651 38.99063857 77.65653518 41.47936043 77.59350586 44.07568359 C77.58448242 44.77757812 77.57545898 45.47947266 77.56616211 46.20263672 C77.5426429 47.93129885 77.50677299 49.65978505 77.46850586 51.38818359 C79.11850586 51.71818359 80.76850586 52.04818359 82.46850586 52.38818359 C82.46850586 55.02818359 82.46850586 57.66818359 82.46850586 60.38818359 C80.81850586 60.71818359 79.16850586 61.04818359 77.46850586 61.38818359 C77.13850586 63.36818359 76.80850586 65.34818359 76.46850586 67.38818359 C74.81850586 67.38818359 73.16850586 67.38818359 71.46850586 67.38818359 C71.50975586 68.46068359 71.55100586 69.53318359 71.59350586 70.63818359 C71.42199423 75.78353243 71.42199423 75.78353243 69.46850586 78.38818359 C66.56053828 80.71455765 64.68491091 81.36113296 60.96850586 81.82568359 C56.87116476 81.31351596 55.35587883 80.27555657 52.46850586 77.38818359 C50.46850586 74.38818359 50.46850586 74.38818359 50.46850586 67.38818359 C42.87850586 67.38818359 35.28850586 67.38818359 27.46850586 67.38818359 C27.46850586 70.02818359 27.46850586 72.66818359 27.46850586 75.38818359 C25.03100586 78.32568359 25.03100586 78.32568359 22.46850586 80.38818359 C22.13850586 80.71818359 21.80850586 81.04818359 21.46850586 81.38818359 C14.39233878 81.97786418 14.39233878 81.97786418 10.53100586 79.51318359 C8.45627532 77.37558243 7.51954652 76.40491356 7.37084961 73.44287109 C7.40340169 71.42464193 7.43595378 69.40641276 7.46850586 67.38818359 C4.82850586 67.38818359 2.18850586 67.38818359 -0.53149414 67.38818359 C-0.46961914 68.44005859 -0.40774414 69.49193359 -0.34399414 70.57568359 C-0.54254026 74.61278808 -1.03839477 76.27180938 -3.53149414 79.38818359 C-6.95309009 81.95438056 -10.37993547 81.89802413 -14.53149414 81.38818359 C-17.40649414 78.95068359 -17.40649414 78.95068359 -19.53149414 76.38818359 C-19.86149414 76.05818359 -20.19149414 75.72818359 -20.53149414 75.38818359 C-20.67264575 72.71759508 -20.57396521 70.06386122 -20.53149414 67.38818359 C-21.45961914 67.45005859 -22.38774414 67.51193359 -23.34399414 67.57568359 C-26.53149414 67.38818359 -26.53149414 67.38818359 -28.20800781 66.16381836 C-29.89764048 63.89694908 -29.90511804 62.59897684 -29.89477539 59.79052734 C-29.89413086 58.906875 -29.89348633 58.02322266 -29.89282227 57.11279297 C-29.87670898 56.19304687 -29.8605957 55.27330078 -29.84399414 54.32568359 C-29.8472168 53.40207031 -29.85043945 52.47845703 -29.85375977 51.52685547 C-29.79854587 44.65523532 -29.79854587 44.65523532 -27.53149414 42.38818359 C-25.03149414 42.13818359 -25.03149414 42.13818359 -22.53149414 42.38818359 C-20.53149414 44.38818359 -20.53149414 44.38818359 -20.40649414 47.51318359 C-20.44774414 48.46193359 -20.48899414 49.41068359 -20.53149414 50.38818359 C-19.21149414 50.38818359 -17.89149414 50.38818359 -16.53149414 50.38818359 C-16.57862549 49.46183105 -16.62575684 48.53547852 -16.67431641 47.58105469 C-18.0905005 15.60437484 -18.0905005 15.60437484 -9.79321289 5.58349609 C-9.0468457 4.85904297 -8.30047852 4.13458984 -7.53149414 3.38818359 C-6.85921532 2.58977554 -6.85921532 2.58977554 -6.1733551 1.77523804 C-4.02143584 -0.04271686 -2.79334751 0.00828736 0 0 Z " fill="#E4E4E4" transform="translate(224.531494140625,216.61181640625)"/>
<path d="M0 0 C3.125 0.25 3.125 0.25 4.9375 1.5625 C6.125 3.25 6.125 3.25 7.125 6.25 C7.90875 5.425 8.6925 4.6 9.5 3.75 C12.125 1.25 12.125 1.25 14.125 1.25 C14.36992187 1.94867188 14.61484375 2.64734375 14.8671875 3.3671875 C17.02795746 8.97482876 17.02795746 8.97482876 21.68359375 12.359375 C24.18234972 12.82722718 26.58641281 13.1415555 29.125 13.25 C29.125 11.93 29.125 10.61 29.125 9.25 C27.145 8.59 25.165 7.93 23.125 7.25 C22.74281233 5.59385343 22.41104898 3.92542976 22.125 2.25 C23.125 1.25 23.125 1.25 26.1875 1.1875 C27.6415625 1.2184375 27.6415625 1.2184375 29.125 1.25 C29.785 2.57 30.445 3.89 31.125 5.25 C31.455 4.26 31.785 3.27 32.125 2.25 C34.1875 1.5625 34.1875 1.5625 36.125 1.25 C36.125 3.23 36.125 5.21 36.125 7.25 C38.765 7.25 41.405 7.25 44.125 7.25 C44.125 5.27 44.125 3.29 44.125 1.25 C45.115 1.25 46.105 1.25 47.125 1.25 C47.125 5.87 47.125 10.49 47.125 15.25 C48.445 15.25 49.765 15.25 51.125 15.25 C51.125 16.9 51.125 18.55 51.125 20.25 C52.07375 20.53875 53.0225 20.8275 54 21.125 C57.125 22.25 57.125 22.25 59.125 24.25 C58.75 26.6875 58.75 26.6875 58.125 29.25 C58.125 31.87113708 58.43792445 33.75935112 59.125 36.25 C58.465 36.25 57.805 36.25 57.125 36.25 C56.650625 35.445625 56.17625 34.64125 55.6875 33.8125 C54.32516328 30.9581924 54.32516328 30.9581924 51.125 30.25 C51.125 32.23 51.125 34.21 51.125 36.25 C50.465 36.25 49.805 36.25 49.125 36.25 C48.63 32.29 48.63 32.29 48.125 28.25 C46.64 27.755 46.64 27.755 45.125 27.25 C45.125 28.24 45.125 29.23 45.125 30.25 C43.145 30.25 41.165 30.25 39.125 30.25 C39.125 31.57 39.125 32.89 39.125 34.25 C41.765 34.25 44.405 34.25 47.125 34.25 C47.125 34.91 47.125 35.57 47.125 36.25 C45.35432584 36.41834933 43.58345388 36.58461909 41.8125 36.75 C40.82636719 36.8428125 39.84023438 36.935625 38.82421875 37.03125 C36.125 37.25 36.125 37.25 33.125 37.25 C29.125 32.90714286 29.125 32.90714286 29.125 30.25 C28.135 30.25 27.145 30.25 26.125 30.25 C26.125 32.23 26.125 34.21 26.125 36.25 C25.196875 35.9715625 25.196875 35.9715625 24.25 35.6875 C22.08339822 35.01313824 22.08339822 35.01313824 20.125 36.25 C13.65441176 36.60294118 13.65441176 36.60294118 10.125 34.25 C9.63 35.24 9.63 35.24 9.125 36.25 C8.135 36.25 7.145 36.25 6.125 36.25 C5.795 35.59 5.465 34.93 5.125 34.25 C3.22966658 33.78476937 3.22966658 33.78476937 1.0625 33.625 C-0.8865625 33.439375 -0.8865625 33.439375 -2.875 33.25 C-2.875 34.24 -2.875 35.23 -2.875 36.25 C-4.525 36.25 -6.175 36.25 -7.875 36.25 C-8.143125 35.610625 -8.41125 34.97125 -8.6875 34.3125 C-9.76167752 31.91868314 -9.76167752 31.91868314 -12.875 31.25 C-12.875 32.9 -12.875 34.55 -12.875 36.25 C-13.865 36.25 -14.855 36.25 -15.875 36.25 C-16.205 31.96 -16.535 27.67 -16.875 23.25 C-18.525 23.25 -20.175 23.25 -21.875 23.25 C-21.875 27.54 -21.875 31.83 -21.875 36.25 C-22.535 36.25 -23.195 36.25 -23.875 36.25 C-23.875 31.96 -23.875 27.67 -23.875 23.25 C-25.525 23.25 -27.175 23.25 -28.875 23.25 C-28.875 22.59 -28.875 21.93 -28.875 21.25 C-23.595 21.25 -18.315 21.25 -12.875 21.25 C-12.875 14.98 -12.875 8.71 -12.875 2.25 C-14.195 1.92 -15.515 1.59 -16.875 1.25 C-13.245 1.25 -9.615 1.25 -5.875 1.25 C-7.195 1.58 -8.515 1.91 -9.875 2.25 C-9.545 5.22 -9.215 8.19 -8.875 11.25 C-7.225 10.92 -5.575 10.59 -3.875 10.25 C-3.88660156 9.61191406 -3.89820313 8.97382813 -3.91015625 8.31640625 C-3.91917969 7.49011719 -3.92820313 6.66382813 -3.9375 5.8125 C-3.94910156 4.98878906 -3.96070313 4.16507813 -3.97265625 3.31640625 C-3.81881025 0.06102492 -3.2971828 0.28671155 0 0 Z " fill="#505050" transform="translate(235.875,143.75)"/>
<path d="M0 0 C0.33 0 0.66 0 1 0 C1.33 6.6 1.66 13.2 2 20 C2.33 20 2.66 20 3 20 C3.02505615 20.60062256 3.0501123 21.20124512 3.07592773 21.82006836 C3.1915528 24.52611437 3.31442936 27.23178283 3.4375 29.9375 C3.47681641 30.88302734 3.51613281 31.82855469 3.55664062 32.80273438 C3.59853516 33.70185547 3.64042969 34.60097656 3.68359375 35.52734375 C3.72025146 36.35999756 3.75690918 37.19265137 3.79467773 38.05053711 C3.79367103 40.00338858 3.79367103 40.00338858 5 41 C5.33 34.07 5.66 27.14 6 20 C15.99073123 18.58954383 15.99073123 18.58954383 19.63183594 21.14550781 C29.83257393 30.55138311 29.83257393 30.55138311 30.11352539 36.33837891 C30.10567017 37.76802979 30.10567017 37.76802979 30.09765625 39.2265625 C30.09282227 40.7734375 30.09282227 40.7734375 30.08789062 42.3515625 C30.07532227 43.97191406 30.07532227 43.97191406 30.0625 45.625 C30.05798828 46.71296875 30.05347656 47.8009375 30.04882812 48.921875 C30.03701776 51.61463789 30.02054778 54.30729188 30 57 C28.94683594 56.34515625 27.89367187 55.6903125 26.80859375 55.015625 C23.75801328 53.27243616 21.63591572 52.53009749 18.0625 52.75 C17.29035156 52.78609375 16.51820313 52.8221875 15.72265625 52.859375 C15.15417969 52.90578125 14.58570313 52.9521875 14 53 C13.505 53.99 13.505 53.99 13 55 C14.546875 54.9071875 14.546875 54.9071875 16.125 54.8125 C20.26656148 55.01289814 22.50462369 55.83619562 26 58 C26.33 58.66 26.66 59.32 27 60 C24.83125748 59.49396008 23.00032373 59.00016187 21 58 C16.07525061 57.57689009 16.07525061 57.57689009 11.6875 59.5 C11.130625 59.995 10.57375 60.49 10 61 C9.34 61 8.68 61 8 61 C8 59.68 8 58.36 8 57 C6.515 57.495 6.515 57.495 5 58 C5 56.35 5 54.7 5 53 C4.34 53 3.68 53 3 53 C3 55.31 3 57.62 3 60 C0.4149133 60.13526616 -2.16308752 60.23417653 -4.75 60.3125 C-5.47960937 60.35439453 -6.20921875 60.39628906 -6.9609375 60.43945312 C-9.109375 60.48828125 -9.109375 60.48828125 -13 60 C-15.375 57.5625 -15.375 57.5625 -17 55 C-21.89156551 52.14658678 -27.38662675 52.34665669 -32.75 53.6875 C-35.55947998 55.32636332 -37.04225614 57.43468046 -39 60 C-39.66 60 -40.32 60 -41 60 C-41.598125 59.21625 -42.19625 58.4325 -42.8125 57.625 C-46.16347846 53.60382585 -48.67483104 53.13034449 -53.8125 52.625 C-60.05771864 52.77876485 -64.68436951 55.68436951 -69 60 C-69 54.39 -69 48.78 -69 43 C-68.34 43 -67.68 43 -67 43 C-66.67 44.65 -66.34 46.3 -66 48 C-46.2 48 -26.4 48 -6 48 C-22.83 47.67 -39.66 47.34 -57 47 C-57 46.67 -57 46.34 -57 46 C-39.18 46 -21.36 46 -3 46 C-3 31.81 -3 17.62 -3 3 C-2.67 3 -2.34 3 -2 3 C-1.67 16.86 -1.34 30.72 -1 45 C-0.67 30.15 -0.34 15.3 0 0 Z " fill="#E1E1E1" transform="translate(268,220)"/>
<path d="M0 0 C0.91427261 -0.00945648 1.82854523 -0.01891296 2.77052307 -0.02865601 C3.75495895 -0.02258331 4.73939484 -0.01651062 5.75366211 -0.01025391 C7.27170692 -0.01455917 7.27170692 -0.01455917 8.82041931 -0.01895142 C10.95971232 -0.02099311 13.09902394 -0.01545593 15.23828125 -0.00292969 C18.521825 0.01313867 21.80414085 -0.00278382 25.08764648 -0.02197266 C27.16382109 -0.01999057 29.23999492 -0.01614761 31.31616211 -0.01025391 C32.79585228 -0.01936295 32.79585228 -0.01936295 34.30543518 -0.02865601 C35.21655563 -0.01919952 36.12767609 -0.00974304 37.06640625 0 C37.87010147 0.00238678 38.67379669 0.00477356 39.50184631 0.00723267 C40.47534279 0.19580338 40.47534279 0.19580338 41.46850586 0.38818359 C43.57334332 3.54543978 43.71571176 4.26192971 43.69555664 7.85961914 C43.69540558 8.76032639 43.69525452 9.66103363 43.69509888 10.58903503 C43.68477631 11.55787125 43.67445374 12.52670746 43.66381836 13.52490234 C43.66098846 14.51947952 43.65815857 15.5140567 43.65524292 16.53877258 C43.64404075 19.7178649 43.618936 22.89667631 43.59350586 26.07568359 C43.58347611 28.2299764 43.57435025 30.38427362 43.56616211 32.53857422 C43.54410132 37.82187331 43.51062342 43.10500839 43.46850586 48.38818359 C42.47850586 48.88318359 42.47850586 48.88318359 41.46850586 49.38818359 C41.13850586 34.53818359 40.80850586 19.68818359 40.46850586 4.38818359 C29.85694336 4.20255859 29.85694336 4.20255859 19.03100586 4.01318359 C16.81583252 3.93793457 14.60065918 3.86268555 12.31835938 3.78515625 C1.93882103 3.42904292 1.93882103 3.42904292 -6.91259766 8.02246094 C-13.44760428 16.10255961 -13.7926942 25.7980257 -13.59399414 35.76318359 C-13.57336914 40.58943359 -13.55274414 45.41568359 -13.53149414 50.38818359 C3.62850586 50.38818359 20.78850586 50.38818359 38.46850586 50.38818359 C37.97350586 51.37818359 37.97350586 51.37818359 37.46850586 52.38818359 C29.66275391 52.41131151 21.85700991 52.42910098 14.05123234 52.43999577 C10.42704626 52.44522361 6.80288356 52.45231947 3.17871094 52.46362305 C-0.31609389 52.47445544 -3.81087618 52.48046117 -7.30569649 52.48306084 C-9.29388803 52.4858191 -11.28207045 52.49363047 -13.27024841 52.5014801 C-14.471418 52.50155563 -15.67258759 52.50163116 -16.91015625 52.50170898 C-18.50566566 52.5050399 -18.50566566 52.5050399 -20.13340759 52.50843811 C-22.53149414 52.38818359 -22.53149414 52.38818359 -23.53149414 51.38818359 C-23.57213246 49.72201244 -23.57421514 48.05430265 -23.53149414 46.38818359 C-24.19149414 46.38818359 -24.85149414 46.38818359 -25.53149414 46.38818359 C-25.20149414 51.66818359 -24.87149414 56.94818359 -24.53149414 62.38818359 C-22.05649414 59.91318359 -22.05649414 59.91318359 -19.53149414 57.38818359 C-15.42268536 55.05615699 -11.16456088 54.78861025 -6.53149414 55.38818359 C-2.93237999 56.81424769 0.05405897 58.30305701 2.46850586 61.38818359 C2.46850586 62.04818359 2.46850586 62.70818359 2.46850586 63.38818359 C3.45850586 63.88318359 3.45850586 63.88318359 4.46850586 64.38818359 C4.13850586 65.04818359 3.80850586 65.70818359 3.46850586 66.38818359 C2.14850586 66.38818359 0.82850586 66.38818359 -0.53149414 66.38818359 C-0.46961914 67.60505859 -0.40774414 68.82193359 -0.34399414 70.07568359 C-0.35091633 73.9867222 -0.98409396 76.29491195 -3.53149414 79.38818359 C-6.95309009 81.95438056 -10.37993547 81.89802413 -14.53149414 81.38818359 C-17.40649414 78.95068359 -17.40649414 78.95068359 -19.53149414 76.38818359 C-19.86149414 76.05818359 -20.19149414 75.72818359 -20.53149414 75.38818359 C-20.67264575 72.71759508 -20.57396521 70.06386122 -20.53149414 67.38818359 C-21.45961914 67.45005859 -22.38774414 67.51193359 -23.34399414 67.57568359 C-26.53149414 67.38818359 -26.53149414 67.38818359 -28.20800781 66.16381836 C-29.89764048 63.89694908 -29.90511804 62.59897684 -29.89477539 59.79052734 C-29.89413086 58.906875 -29.89348633 58.02322266 -29.89282227 57.11279297 C-29.87670898 56.19304687 -29.8605957 55.27330078 -29.84399414 54.32568359 C-29.8472168 53.40207031 -29.85043945 52.47845703 -29.85375977 51.52685547 C-29.79854587 44.65523532 -29.79854587 44.65523532 -27.53149414 42.38818359 C-25.03149414 42.13818359 -25.03149414 42.13818359 -22.53149414 42.38818359 C-20.53149414 44.38818359 -20.53149414 44.38818359 -20.40649414 47.51318359 C-20.44774414 48.46193359 -20.48899414 49.41068359 -20.53149414 50.38818359 C-19.21149414 50.38818359 -17.89149414 50.38818359 -16.53149414 50.38818359 C-16.57862549 49.46183105 -16.62575684 48.53547852 -16.67431641 47.58105469 C-18.0905005 15.60437484 -18.0905005 15.60437484 -9.79321289 5.58349609 C-9.0468457 4.85904297 -8.30047852 4.13458984 -7.53149414 3.38818359 C-6.85921532 2.58977554 -6.85921532 2.58977554 -6.1733551 1.77523804 C-4.02143584 -0.04271686 -2.79334751 0.00828736 0 0 Z " fill="#EBEBEB" transform="translate(224.531494140625,216.61181640625)"/>
<path d="M0 0 C2.25 0 2.25 0 5 1 C6.44247212 2.72084393 7.61928097 4.4906346 8.7890625 6.40625 C10.00237373 8.31416029 10.00237373 8.31416029 13 9 C13 12 13 15 13 18 C13.90492188 18.36544922 13.90492188 18.36544922 14.828125 18.73828125 C18.71437511 20.99594094 20.3438867 24.9392102 22 29 C22.42768603 31.57086823 22.32775195 33.37798439 22 36 C21 37 21 37 18.27734375 37.09765625 C17.17519531 37.08605469 16.07304687 37.07445312 14.9375 37.0625 C13.83277344 37.05347656 12.72804687 37.04445313 11.58984375 37.03515625 C10.73519531 37.02355469 9.88054687 37.01195312 9 37 C9 37.66 9 38.32 9 39 C8.38511719 38.67 7.77023438 38.34 7.13671875 38 C2.66973947 36.57590698 -1.534874 36.86716271 -6.1875 37 C-7.99325288 37.05090212 -9.79928187 37.0930085 -11.60546875 37.125 C-12.40106201 37.14820313 -13.19665527 37.17140625 -14.01635742 37.1953125 C-16 37 -16 37 -18 35 C-18.54967411 31.06066889 -18.01572069 28.69879475 -16 25.375 C-13.66013174 22.08032043 -13.66013174 22.08032043 -14 18 C-12.35 17.67 -10.7 17.34 -9 17 C-9.33 16.01 -9.66 15.02 -10 14 C-9.34 14 -8.68 14 -8 14 C-7.8453125 13.15501953 -7.8453125 13.15501953 -7.6875 12.29296875 C-6.87100018 9.56975629 -5.6085206 7.65181481 -4 5.3125 C-3.195625 4.13107422 -3.195625 4.13107422 -2.375 2.92578125 C-1 1 -1 1 0 0 Z " fill="#535353" transform="translate(237,224)"/>
<path d="M0 0 C1.45742463 -0.08096803 2.91612807 -0.13917774 4.375 -0.1875 C5.18710938 -0.22230469 5.99921875 -0.25710938 6.8359375 -0.29296875 C7.55007812 -0.19628906 8.26421875 -0.09960938 9 0 C9.66 0.99 10.32 1.98 11 3 C11.33 2.01 11.66 1.02 12 0 C15.04386724 -0.08226668 17.07175348 0.02391783 20 1 C20.66 0.67 21.32 0.34 22 0 C24.6723621 -0.13415472 27.32250488 -0.04318541 30 0 C30 0.66 30 1.32 30 2 C28.02 2 26.04 2 24 2 C24 3.32 24 4.64 24 6 C25.32 6.33 26.64 6.66 28 7 C26.68 7 25.36 7 24 7 C24 8.32 24 9.64 24 11 C25.98 11 27.96 11 30 11 C30 11.66 30 12.32 30 13 C29.34 13.33 28.68 13.66 28 14 C29.32 14.66 30.64 15.32 32 16 C32 16.66 32 17.32 32 18 C29.69 18 27.38 18 25 18 C25 19.32 25 20.64 25 22 C26.65 22 28.3 22 30 22 C30 22.66 30 23.32 30 24 C28.35 24 26.7 24 25 24 C25 24.99 25 25.98 25 27 C27.31 27 29.62 27 32 27 C32 27.66 32 28.32 32 29 C25.84765625 29.09765625 25.84765625 29.09765625 24 29 C21.95301586 26.95301586 22.29954307 22.69588759 22 20 C19.03 19.67 16.06 19.34 13 19 C13 20.98 13 22.96 13 25 C14.98 25.66 16.96 26.32 19 27 C19 26.01 19 25.02 19 24 C18.01 23.67 17.02 23.34 16 23 C17.32 23 18.64 23 20 23 C20.042721 24.66611905 20.04063832 26.33382885 20 28 C19 29 19 29 16.6875 29.25 C13.55923162 28.95899829 12.31322267 28.05619793 10 26 C9.67 26.66 9.34 27.32 9 28 C8.34 28 7.68 28 7 28 C7 27.34 7 26.68 7 26 C5.02 26 3.04 26 1 26 C1 26.99 1 27.98 1 29 C-1.99531539 29.99843846 -3.17255732 30.00732761 -6.1875 29.5625 C-7.445625 29.376875 -8.70375 29.19125 -10 29 C-10 25.04 -10 21.08 -10 17 C-8.741875 16.731875 -7.48375 16.46375 -6.1875 16.1875 C-2.89243652 15.38113763 -1.24578499 14.60038262 1 12 C1.99 12 2.98 12 4 12 C4 8.7 4 5.4 4 2 C2.68 2 1.36 2 0 2 C0 1.34 0 0.68 0 0 Z " fill="#5F5F5F" transform="translate(198,336)"/>
<path d="M0 0 C0.33 0 0.66 0 1 0 C1 4.62 1 9.24 1 14 C2.32 14 3.64 14 5 14 C5 15.65 5 17.3 5 19 C6.423125 19.433125 6.423125 19.433125 7.875 19.875 C11 21 11 21 13 23 C12.625 25.4375 12.625 25.4375 12 28 C12 30.62113708 12.31292445 32.50935112 13 35 C12.34 35 11.68 35 11 35 C10.525625 34.195625 10.05125 33.39125 9.5625 32.5625 C8.20016328 29.7081924 8.20016328 29.7081924 5 29 C5 30.98 5 32.96 5 35 C4.34 35 3.68 35 3 35 C2.67 32.36 2.34 29.72 2 27 C1.01 26.67 0.02 26.34 -1 26 C-1 26.99 -1 27.98 -1 29 C-2.98 29 -4.96 29 -7 29 C-7 30.32 -7 31.64 -7 33 C-4.36 33 -1.72 33 1 33 C1 33.66 1 34.32 1 35 C-0.77067416 35.16834933 -2.54154612 35.33461909 -4.3125 35.5 C-5.29863281 35.5928125 -6.28476562 35.685625 -7.30078125 35.78125 C-10 36 -10 36 -13 36 C-13.103125 35.4225 -13.20625 34.845 -13.3125 34.25 C-14.09792798 31.67950842 -15.30504197 30.06342716 -17 28 C-16.67 27.360625 -16.34 26.72125 -16 26.0625 C-14.92728775 24.23205433 -14.92728775 24.23205433 -15 23 C-16.65 24.32 -18.3 25.64 -20 27 C-20 25.02 -20 23.04 -20 21 C-20.99 21 -21.98 21 -23 21 C-23.33 21.99 -23.66 22.98 -24 24 C-24.33 22.68 -24.66 21.36 -25 20 C-24.443125 19.79375 -23.88625 19.5875 -23.3125 19.375 C-18.0216802 16.22910715 -15.52336954 11.81650188 -14 6 C-12 8 -12 8 -11.875 11.125 C-11.91625 12.07375 -11.9575 13.0225 -12 14 C-11.34 14 -10.68 14 -10 14 C-10 12.02 -10 10.04 -10 8 C-7.36 8 -4.72 8 -2 8 C-2 9.98 -2 11.96 -2 14 C-1.34 14 -0.68 14 0 14 C0 9.38 0 4.76 0 0 Z " fill="#4F4F4F" transform="translate(282,145)"/>
<path d="M0 0 C0.66 0 1.32 0 2 0 C2 3.63 2 7.26 2 11 C2.66 11 3.32 11 4 11 C4 7.7 4 4.4 4 1 C4.99 0.67 5.98 0.34 7 0 C7.33 0.66 7.66 1.32 8 2 C9.32 1.67 10.64 1.34 12 1 C13.65 3.31 15.3 5.62 17 8 C17.33 5.69 17.66 3.38 18 1 C18.33 1 18.66 1 19 1 C18.94199219 1.90363281 18.88398438 2.80726563 18.82421875 3.73828125 C18.75654297 5.50751953 18.75654297 5.50751953 18.6875 7.3125 C18.62949219 8.48425781 18.57148438 9.65601563 18.51171875 10.86328125 C18.67285156 11.89839844 18.83398438 12.93351562 19 14 C21.43068504 15.83402334 21.43068504 15.83402334 24 17 C24 17.66 24 18.32 24 19 C21.69 19 19.38 19 17 19 C17 20.98 17 22.96 17 25 C19.31 25.66 21.62 26.32 24 27 C23.67 27.66 23.34 28.32 23 29 C20.35786868 29.21422686 18.58483133 29.33418933 16.25 28 C14.27115069 24.83384111 14.30303807 21.69706448 14 18 C11.36 18 8.72 18 6 18 C6 19.32 6 20.64 6 22 C7.65 22 9.3 22 11 22 C11 22.66 11 23.32 11 24 C9.35 24 7.7 24 6 24 C6 24.99 6 25.98 6 27 C7.98 27 9.96 27 12 27 C12 27.66 12 28.32 12 29 C6 29 0 29 -6 29 C-6 25.04 -6 21.08 -6 17 C-5.01 17 -4.02 17 -3 17 C-2.31292445 14.50935112 -2 12.62113708 -2 10 C-3.43990623 7.82967524 -3.43990623 7.82967524 -5 6 C-5.33 7.98 -5.66 9.96 -6 12 C-6.66 12 -7.32 12 -8 12 C-8 8.37 -8 4.74 -8 1 C-4.00003714 2.33332095 -3.16217663 4.4957827 -1 8 C-0.67 5.36 -0.34 2.72 0 0 Z " fill="#626262" transform="translate(281,336)"/>
<path d="M0 0 C3.90434975 -0.81560885 7.11080753 -0.96631842 11 0 C15.74101794 3.42755873 20.39417826 8.78835653 23 14 C23.08449628 15.7404417 23.10723024 17.48409722 23.09765625 19.2265625 C23.09443359 20.2578125 23.09121094 21.2890625 23.08789062 22.3515625 C23.07951172 23.43179687 23.07113281 24.51203125 23.0625 25.625 C23.05798828 26.71296875 23.05347656 27.8009375 23.04882812 28.921875 C23.03701776 31.61463789 23.02054778 34.30729188 23 37 C21.9378125 36.34773438 20.875625 35.69546875 19.78125 35.0234375 C14.78954894 32.17856964 10.4295084 32.25746424 4.87109375 33.4609375 C3.23082718 33.91822394 1.61197143 34.45124377 0 35 C0 31.04 0 27.08 0 23 C2.97 23 5.94 23 9 23 C9 21.68 9 20.36 9 19 C6.03 19 3.06 19 0 19 C0.33 17.68 0.66 16.36 1 15 C6.28 15 11.56 15 17 15 C16.15612088 10.78060442 15.5839178 8.38019097 12.80859375 5.16015625 C9.03277452 2.73808646 4.29842398 3.59349405 0 4 C0 2.68 0 1.36 0 0 Z " fill="#4E4E4E" transform="translate(275,240)"/>
<path d="M0 0 C0.33 0.99 0.66 1.98 1 3 C0.37351563 3.04898437 -0.25296875 3.09796875 -0.8984375 3.1484375 C-2.12433594 3.26058594 -2.12433594 3.26058594 -3.375 3.375 C-4.18710938 3.44460938 -4.99921875 3.51421875 -5.8359375 3.5859375 C-8.20334191 3.82892588 -8.20334191 3.82892588 -10 6 C-9.34 5.67 -8.68 5.34 -8 5 C-3.74574422 4.59093694 -1.4548953 4.76412836 2.375 6.75 C5 9 5 9 5.875 10.8125 C5.91625 11.534375 5.9575 12.25625 6 13 C6.12375 14.134375 6.2475 15.26875 6.375 16.4375 C5.90168248 20.93401643 4.40901937 22.17300833 1 25 C0.67 25.33 0.34 25.66 0 26 C-7.07616708 26.58968059 -7.07616708 26.58968059 -10.9375 24.125 C-13.01223054 21.98739884 -13.94895934 21.01672997 -14.09765625 18.0546875 C-14.06510417 16.03645833 -14.03255208 14.01822917 -14 12 C-16.64 12 -19.28 12 -22 12 C-21.38125 11.95875 -20.7625 11.9175 -20.125 11.875 C-19.42375 11.58625 -18.7225 11.2975 -18 11 C-17.29373761 9.01363702 -16.63106429 7.01151741 -16 5 C-11.38272503 -0.69463913 -6.85289387 -0.1142149 0 0 Z " fill="#E1E1E1" transform="translate(246,272)"/>
<path d="M0 0 C0.66 0 1.32 0 2 0 C2.66 1.98 3.32 3.96 4 6 C37.66 6.495 37.66 6.495 72 7 C72 10.3 72 13.6 72 17 C69.4149133 17.13526616 66.83691248 17.23417653 64.25 17.3125 C63.52039063 17.35439453 62.79078125 17.39628906 62.0390625 17.43945312 C59.890625 17.48828125 59.890625 17.48828125 56 17 C53.625 14.5625 53.625 14.5625 52 12 C47.10843449 9.14658678 41.61337325 9.34665669 36.25 10.6875 C33.44052002 12.32636332 31.95774386 14.43468046 30 17 C29.34 17 28.68 17 28 17 C27.401875 16.21625 26.80375 15.4325 26.1875 14.625 C22.83652154 10.60382585 20.32516896 10.13034449 15.1875 9.625 C8.94228136 9.77876485 4.31563049 12.68436951 0 17 C0 11.39 0 5.78 0 0 Z " fill="#5E5E5E" transform="translate(199,263)"/>
<path d="M0 0 C3.125 0.25 3.125 0.25 5.0625 1.4375 C6.125 3.25 6.125 3.25 5.875 5.8125 C5.125 8.25 5.125 8.25 4.125 10.25 C5.01863605 12.85931266 5.01863605 12.85931266 6.125 15.25 C5.135 14.92 4.145 14.59 3.125 14.25 C2.4375 12.1875 2.4375 12.1875 2.125 10.25 C0.805 10.25 -0.515 10.25 -1.875 10.25 C-1.813125 11.11625 -1.75125 11.9825 -1.6875 12.875 C-1.90332204 16.75979678 -3.06406318 18.83708062 -4.875 22.25 C-5.57230806 24.5743602 -6.24412152 26.90673706 -6.875 29.25 C-7.205 29.91 -7.535 30.57 -7.875 31.25 C-6.98136395 33.85931266 -6.98136395 33.85931266 -5.875 36.25 C-6.535 36.25 -7.195 36.25 -7.875 36.25 C-8.143125 35.610625 -8.41125 34.97125 -8.6875 34.3125 C-9.76167752 31.91868314 -9.76167752 31.91868314 -12.875 31.25 C-12.875 32.9 -12.875 34.55 -12.875 36.25 C-13.865 36.25 -14.855 36.25 -15.875 36.25 C-16.205 31.96 -16.535 27.67 -16.875 23.25 C-18.525 23.25 -20.175 23.25 -21.875 23.25 C-21.875 27.54 -21.875 31.83 -21.875 36.25 C-22.535 36.25 -23.195 36.25 -23.875 36.25 C-23.875 31.96 -23.875 27.67 -23.875 23.25 C-25.525 23.25 -27.175 23.25 -28.875 23.25 C-28.875 22.59 -28.875 21.93 -28.875 21.25 C-23.595 21.25 -18.315 21.25 -12.875 21.25 C-12.875 14.98 -12.875 8.71 -12.875 2.25 C-14.195 1.92 -15.515 1.59 -16.875 1.25 C-13.245 1.25 -9.615 1.25 -5.875 1.25 C-7.195 1.58 -8.515 1.91 -9.875 2.25 C-9.545 5.22 -9.215 8.19 -8.875 11.25 C-7.225 10.92 -5.575 10.59 -3.875 10.25 C-3.88660156 9.61191406 -3.89820313 8.97382813 -3.91015625 8.31640625 C-3.91917969 7.49011719 -3.92820313 6.66382813 -3.9375 5.8125 C-3.94910156 4.98878906 -3.96070313 4.16507813 -3.97265625 3.31640625 C-3.81881025 0.06102492 -3.2971828 0.28671155 0 0 Z " fill="#707070" transform="translate(235.875,143.75)"/>
<path d="M0 0 C0.91427261 -0.00945648 1.82854523 -0.01891296 2.77052307 -0.02865601 C3.75495895 -0.02258331 4.73939484 -0.01651062 5.75366211 -0.01025391 C7.27170692 -0.01455917 7.27170692 -0.01455917 8.82041931 -0.01895142 C10.95971232 -0.02099311 13.09902394 -0.01545593 15.23828125 -0.00292969 C18.521825 0.01313867 21.80414085 -0.00278382 25.08764648 -0.02197266 C27.16382109 -0.01999057 29.23999492 -0.01614761 31.31616211 -0.01025391 C32.79585228 -0.01936295 32.79585228 -0.01936295 34.30543518 -0.02865601 C35.21655563 -0.01919952 36.12767609 -0.00974304 37.06640625 0 C37.87010147 0.00238678 38.67379669 0.00477356 39.50184631 0.00723267 C40.47534279 0.19580338 40.47534279 0.19580338 41.46850586 0.38818359 C43.57334332 3.54543978 43.71571176 4.26192971 43.69555664 7.85961914 C43.69540558 8.76032639 43.69525452 9.66103363 43.69509888 10.58903503 C43.68477631 11.55787125 43.67445374 12.52670746 43.66381836 13.52490234 C43.66098846 14.51947952 43.65815857 15.5140567 43.65524292 16.53877258 C43.64404075 19.7178649 43.618936 22.89667631 43.59350586 26.07568359 C43.58347611 28.2299764 43.57435025 30.38427362 43.56616211 32.53857422 C43.54410132 37.82187331 43.51062342 43.10500839 43.46850586 48.38818359 C42.47850586 48.88318359 42.47850586 48.88318359 41.46850586 49.38818359 C41.13850586 34.53818359 40.80850586 19.68818359 40.46850586 4.38818359 C29.85694336 4.20255859 29.85694336 4.20255859 19.03100586 4.01318359 C16.81583252 3.93793457 14.60065918 3.86268555 12.31835938 3.78515625 C1.93126732 3.42569918 1.93126732 3.42569918 -6.91259766 8.04003906 C-13.30709245 15.98468318 -13.80175228 25.41641431 -13.59399414 35.26318359 C-13.59708008 36.64470913 -13.6042244 38.0262317 -13.61547852 39.40771484 C-13.62711843 42.7367312 -13.59857165 46.0599839 -13.53149414 49.38818359 C-13.86149414 49.38818359 -14.19149414 49.38818359 -14.53149414 49.38818359 C-14.55655029 48.56092773 -14.58160645 47.73367188 -14.60742188 46.88134766 C-14.72345763 43.13347167 -14.84615014 39.38584234 -14.96899414 35.63818359 C-15.00831055 34.33623047 -15.04762695 33.03427734 -15.08813477 31.69287109 C-15.1300293 30.44248047 -15.17192383 29.19208984 -15.21508789 27.90380859 C-15.25174561 26.75170898 -15.28840332 25.59960938 -15.32617188 24.41259766 C-15.41807454 21.49363477 -15.41807454 21.49363477 -16.16162109 19.19018555 C-16.75313205 16.30837539 -15.09519294 14.54416748 -13.56665039 12.20654297 C-13.14254883 11.58585938 -12.71844727 10.96517578 -12.28149414 10.32568359 C-11.87286133 9.70113281 -11.46422852 9.07658203 -11.04321289 8.43310547 C-5.4558879 0.01618664 -5.4558879 0.01618664 0 0 Z " fill="#C8C8C8" transform="translate(224.531494140625,216.61181640625)"/>
<path d="M0 0 C5 0 5 0 8 1 C8.66 0.67 9.32 0.34 10 0 C12.6723621 -0.13415472 15.32250488 -0.04318541 18 0 C18 0.66 18 1.32 18 2 C16.02 2 14.04 2 12 2 C12 3.32 12 4.64 12 6 C13.32 6.33 14.64 6.66 16 7 C14.68 7 13.36 7 12 7 C12 8.32 12 9.64 12 11 C13.98 11 15.96 11 18 11 C18 11.66 18 12.32 18 13 C17.01 13.495 17.01 13.495 16 14 C17.32 14.66 18.64 15.32 20 16 C20 16.66 20 17.32 20 18 C17.69 18 15.38 18 13 18 C13 19.32 13 20.64 13 22 C14.65 22 16.3 22 18 22 C18 22.66 18 23.32 18 24 C16.35 24 14.7 24 13 24 C13 24.99 13 25.98 13 27 C15.31 27 17.62 27 20 27 C20 27.66 20 28.32 20 29 C13.84765625 29.09765625 13.84765625 29.09765625 12 29 C10.19533017 27.19533017 10.58507442 24.26897184 10.37890625 21.8125 C10.25386719 21.214375 10.12882813 20.61625 10 20 C9.34 19.67 8.68 19.34 8 19 C8 18.34 8 17.68 8 17 C6.35 17 4.7 17 3 17 C3 15.68 3 14.36 3 13 C2.01 12.67 1.02 12.34 0 12 C0 8.04 0 4.08 0 0 Z " fill="#565656" transform="translate(210,336)"/>
<path d="M0 0 C0.33 0 0.66 0 1 0 C1.33 6.6 1.66 13.2 2 20 C2.33 20 2.66 20 3 20 C3.02505615 20.60062256 3.0501123 21.20124512 3.07592773 21.82006836 C3.1915528 24.52611437 3.31442936 27.23178283 3.4375 29.9375 C3.47681641 30.88302734 3.51613281 31.82855469 3.55664062 32.80273438 C3.59853516 33.70185547 3.64042969 34.60097656 3.68359375 35.52734375 C3.72025146 36.35999756 3.75690918 37.19265137 3.79467773 38.05053711 C3.79367103 40.00338858 3.79367103 40.00338858 5 41 C5.07244053 43.01964199 5.08377188 45.04167124 5.0625 47.0625 C5.05347656 48.16722656 5.04445313 49.27195312 5.03515625 50.41015625 C5.02355469 51.26480469 5.01195312 52.11945313 5 53 C4.34 53 3.68 53 3 53 C3 52.01 3 51.02 3 50 C-19.44 50 -41.88 50 -65 50 C-65 49.67 -65 49.34 -65 49 C-45.53 48.67 -26.06 48.34 -6 48 C-22.83 47.67 -39.66 47.34 -57 47 C-57 46.67 -57 46.34 -57 46 C-39.18 46 -21.36 46 -3 46 C-3 31.81 -3 17.62 -3 3 C-2.67 3 -2.34 3 -2 3 C-1.67 16.86 -1.34 30.72 -1 45 C-0.67 30.15 -0.34 15.3 0 0 Z " fill="#C1C1C1" transform="translate(268,220)"/>
<path d="M0 0 C0.99 0.33 1.98 0.66 3 1 C18.10669831 31.47776384 14.03119837 68.87361022 8 101 C7.34 101 6.68 101 6 101 C5.8453125 102.8253125 5.8453125 102.8253125 5.6875 104.6875 C5.23780688 108.41069448 4.21617222 110.91662995 2 114 C0.66343157 110.32659257 1.38360357 108.24101018 2.6875 104.625 C7.72558279 88.66814546 9.37756223 73.17005972 9.375 56.5 C9.37681274 55.73654266 9.37862549 54.97308533 9.38049316 54.18649292 C9.37717074 41.82590556 8.68132328 29.59037656 5.0625 17.6875 C4.71832031 16.54152344 4.37414062 15.39554688 4.01953125 14.21484375 C3.121718 11.38380809 2.1999691 8.56388951 1.25 5.75 C0 2 0 2 0 0 Z " fill="#DEDEDE" transform="translate(378,197)"/>
<path d="M0 0 C5.34628382 0.16933662 8.1284322 1.63596535 11.83032227 5.46166992 C17.20889125 11.70084366 20.84349152 16.18669162 20.63818359 24.64379883 C20.62916016 25.34569336 20.62013672 26.04758789 20.61083984 26.77075195 C20.58732063 28.49941408 20.55145072 30.22790028 20.51318359 31.95629883 C22.16318359 32.28629883 23.81318359 32.61629883 25.51318359 32.95629883 C25.51318359 35.59629883 25.51318359 38.23629883 25.51318359 40.95629883 C24.52318359 41.28629883 23.53318359 41.61629883 22.51318359 41.95629883 C21.85318359 41.29629883 21.19318359 40.63629883 20.51318359 39.95629883 C21.17318359 39.95629883 21.83318359 39.95629883 22.51318359 39.95629883 C22.51318359 38.30629883 22.51318359 36.65629883 22.51318359 34.95629883 C21.52318359 34.95629883 20.53318359 34.95629883 19.51318359 34.95629883 C19.18318359 36.60629883 18.85318359 38.25629883 18.51318359 39.95629883 C18.18318359 39.95629883 17.85318359 39.95629883 17.51318359 39.95629883 C17.53844116 39.08062256 17.53844116 39.08062256 17.56420898 38.18725586 C18.23073032 24.51417702 18.23073032 24.51417702 12.13818359 12.89379883 C10.61413737 11.56087892 9.07397109 10.24600218 7.51318359 8.95629883 C7.05041016 8.23055664 6.58763672 7.50481445 6.11083984 6.75708008 C4.57621633 4.66668024 4.57621633 4.66668024 1.59521484 4.34692383 C-1.43212891 4.21671549 -4.45947266 4.08650716 -7.48681641 3.95629883 C-7.48681641 11.54629883 -7.48681641 19.13629883 -7.48681641 26.95629883 C-10.48681641 23.95629883 -10.48681641 23.95629883 -10.84326172 21.61206055 C-10.83391602 20.71245605 -10.82457031 19.81285156 -10.81494141 18.88598633 C-10.80978516 17.90758789 -10.80462891 16.92918945 -10.79931641 15.92114258 C-10.77869141 14.90149414 -10.75806641 13.8818457 -10.73681641 12.83129883 C-10.73166016 11.80391602 -10.72650391 10.7765332 -10.72119141 9.71801758 C-10.62419213 0.53946082 -8.93939708 0.33424873 0 0 Z " fill="#EAEAEA" transform="translate(281.48681640625,236.043701171875)"/>
<path d="M0 0 C0.66 0 1.32 0 2 0 C1.37548649 3.30644192 0.60931959 6.51073273 -0.33984375 9.73828125 C-9.33100567 40.91776397 -10.14423193 73.22678884 -0.0859375 104.30078125 C0.98005582 107.93206065 1.5639705 111.25499104 2 115 C1.34 115 0.68 115 0 115 C-3.01651482 107.31035976 -5.47128708 99.69309387 -7.25 91.625 C-7.41274414 90.88910645 -7.57548828 90.15321289 -7.74316406 89.39501953 C-9.94061654 79.03526746 -10.23932501 68.86646195 -10.25 58.3125 C-10.25133942 57.53431915 -10.25267883 56.75613831 -10.25405884 55.95437622 C-10.2474648 38.28031722 -9.43137137 20.16362154 -1.8125 3.875 C-1.46832031 3.12992188 -1.12414062 2.38484375 -0.76953125 1.6171875 C-0.51558594 1.08351562 -0.26164062 0.54984375 0 0 Z " fill="#E6E6E6" transform="translate(123,197)"/>
<path d="M0 0 C3.21733751 0.35696007 5.25506505 1.12657772 7.67578125 3.296875 C7.67578125 3.956875 7.67578125 4.616875 7.67578125 5.296875 C6.68578125 5.626875 5.69578125 5.956875 4.67578125 6.296875 C4.73765625 7.534375 4.79953125 8.771875 4.86328125 10.046875 C4.83960684 12.71734797 4.68086319 14.28417014 3.67578125 16.796875 C0.95595904 18.83674165 -1.11322956 18.80560966 -4.44921875 18.609375 C-6.32421875 18.296875 -6.32421875 18.296875 -8.32421875 17.234375 C-9.98119968 14.02397445 -9.87415954 11.84093788 -9.32421875 8.296875 C-7.49752091 6.17366969 -5.66373773 4.9052943 -3.32421875 3.296875 C-4.08734375 3.296875 -4.85046875 3.296875 -5.63671875 3.296875 C-7.53255208 3.296875 -9.42838542 3.296875 -11.32421875 3.296875 C-8.1388139 -0.74367209 -4.81628049 -0.12758359 0 0 Z " fill="#686868" transform="translate(216.32421875,275.703125)"/>
<path d="M0 0 C0.33 0 0.66 0 1 0 C1.33 9.57 1.66 19.14 2 29 C19.16 29.33 36.32 29.66 54 30 C53.67 30.66 53.34 31.32 53 32 C33.2 32 13.4 32 -7 32 C-9 25 -9 25 -9 23 C-7.68 23.33 -6.36 23.66 -5 24 C-5 25.98 -5 27.96 -5 30 C-3.68 30 -2.36 30 -1 30 C-1.00523682 29.12674072 -1.01047363 28.25348145 -1.01586914 27.35375977 C-1.03287751 24.12410727 -1.04543369 20.89447755 -1.05493164 17.66479492 C-1.0599708 16.26504772 -1.06680216 14.8653058 -1.07543945 13.46557617 C-1.0875232 11.45754223 -1.09269807 9.44947043 -1.09765625 7.44140625 C-1.10289307 6.23170166 -1.10812988 5.02199707 -1.11352539 3.77563477 C-1 1 -1 1 0 0 Z " fill="#F5F5F5" transform="translate(209,237)"/>
<path d="M0 0 C0.33 0 0.66 0 1 0 C1.33 4.29 1.66 8.58 2 13 C3.65 13 5.3 13 7 13 C9.10516913 16.42089983 9.08793685 19.04284167 9 23 C10.99616554 24.99616554 14.81701963 24.40983427 17.5625 24.5625 C18.62887695 24.62727539 18.62887695 24.62727539 19.71679688 24.69335938 C21.47761912 24.79971777 23.2387832 24.90038846 25 25 C25 25.33 25 25.66 25 26 C24.07316406 26.06058594 23.14632812 26.12117188 22.19140625 26.18359375 C20.39509766 26.30927734 20.39509766 26.30927734 18.5625 26.4375 C17.36753906 26.51871094 16.17257813 26.59992188 14.94140625 26.68359375 C12.11429756 26.67656114 12.11429756 26.67656114 11 28 C15.29 28.33 19.58 28.66 24 29 C24 29.33 24 29.66 24 30 C16.08 30 8.16 30 0 30 C0 20.1 0 10.2 0 0 Z " fill="#575757" transform="translate(211,236)"/>
<path d="M0 0 C6.37203593 -0.0505963 12.7440203 -0.08568957 19.11621094 -0.10986328 C21.28517594 -0.11993789 23.45412731 -0.13359798 25.62304688 -0.15087891 C28.73571126 -0.17506323 31.84819651 -0.18646832 34.9609375 -0.1953125 C35.934935 -0.20563507 36.9089325 -0.21595764 37.91244507 -0.22659302 C39.26361923 -0.22681961 39.26361923 -0.22681961 40.64208984 -0.22705078 C41.43706879 -0.231492 42.23204773 -0.23593323 43.05111694 -0.24050903 C45 0 45 0 47 2 C47.24050903 3.94888306 47.24050903 3.94888306 47.22705078 6.35791016 C47.22689972 7.25869293 47.22674866 8.15947571 47.22659302 9.08755493 C47.21627045 10.06155243 47.20594788 11.03554993 47.1953125 12.0390625 C47.1924826 13.03505463 47.18965271 14.03104675 47.18673706 15.05722046 C47.1755184 18.24660118 47.15041081 21.43570378 47.125 24.625 C47.11497238 26.78385012 47.10584615 28.94270463 47.09765625 31.1015625 C47.07557361 36.40113699 47.04207958 41.70054863 47 47 C46.01 47.495 46.01 47.495 45 48 C44.97494385 46.70787598 44.9498877 45.41575195 44.92407227 44.08447266 C44.83008376 39.30230344 44.72984234 34.52028238 44.62768555 29.73828125 C44.58430423 27.66637634 44.54263154 25.59443493 44.50268555 23.52246094 C44.44506035 20.54871609 44.38134375 17.57515552 44.31640625 14.6015625 C44.29969376 13.67131256 44.28298126 12.74106262 44.26576233 11.78262329 C44.2358445 10.49151138 44.2358445 10.49151138 44.20532227 9.17431641 C44.18200584 8.03514267 44.18200584 8.03514267 44.15821838 6.87295532 C44.10872873 4.90884279 44.10872873 4.90884279 43 3 C28.81 2.67 14.62 2.34 0 2 C0 1.34 0 0.68 0 0 Z " fill="#F4F4F4" transform="translate(221,218)"/>
<path d="M0 0 C1.4540625 0.0309375 1.4540625 0.0309375 2.9375 0.0625 C3.5975 1.3825 4.2575 2.7025 4.9375 4.0625 C5.2675 3.0725 5.5975 2.0825 5.9375 1.0625 C8 0.375 8 0.375 9.9375 0.0625 C9.9375 2.0425 9.9375 4.0225 9.9375 6.0625 C12.5775 6.0625 15.2175 6.0625 17.9375 6.0625 C17.9375 4.0825 17.9375 2.1025 17.9375 0.0625 C18.5975 0.0625 19.2575 0.0625 19.9375 0.0625 C19.9375 4.6825 19.9375 9.3025 19.9375 14.0625 C19.2775 14.0625 18.6175 14.0625 17.9375 14.0625 C17.9375 12.0825 17.9375 10.1025 17.9375 8.0625 C15.2975 8.0625 12.6575 8.0625 9.9375 8.0625 C9.9375 10.0425 9.9375 12.0225 9.9375 14.0625 C9.2775 14.0625 8.6175 14.0625 7.9375 14.0625 C7.2775 11.7525 6.6175 9.4425 5.9375 7.0625 C5.628125 8.031875 5.31875 9.00125 5 10 C3.9375 13.0625 3.9375 13.0625 2.9375 14.0625 C0 14.3125 0 14.3125 -3.0625 14.0625 C-3.7225 13.0725 -4.3825 12.0825 -5.0625 11.0625 C-2.4225 11.3925 0.2175 11.7225 2.9375 12.0625 C2.9375 10.7425 2.9375 9.4225 2.9375 8.0625 C0.9575 7.4025 -1.0225 6.7425 -3.0625 6.0625 C-3.44468767 4.40635343 -3.77645102 2.73792976 -4.0625 1.0625 C-3.0625 0.0625 -3.0625 0.0625 0 0 Z " fill="#8B8B8B" transform="translate(262.0625,144.9375)"/>
<path d="M0 0 C3.4375 0.9375 3.4375 0.9375 5.4375 2.0625 C7.14407378 5.26232583 6.38946177 7.5461362 5.4375 10.9375 C3.1875 13.4375 3.1875 13.4375 0.4375 14.9375 C-2.42571294 14.86932826 -3.96057715 14.31110729 -6.375 12.8125 C-8.29200563 9.78564901 -7.99043633 7.4221244 -7.5625 3.9375 C-5.29401339 0.30792142 -4.30870043 -0.07559124 0 0 Z " fill="#707070" transform="translate(286.5625,280.0625)"/>
<path d="M0 0 C3.4375 0.9375 3.4375 0.9375 5.375 2.0625 C7.08300843 5.07663252 6.79954814 7.55838399 6.4375 10.9375 C5.4375 12.875 5.4375 12.875 3.4375 13.9375 C0.67855859 14.39732357 -1.80824069 14.44818558 -4.5625 13.9375 C-7.2548481 11.74996717 -7.50186827 10.35326045 -8 6.9375 C-7.5625 3.9375 -7.5625 3.9375 -6 1.5 C-3.5625 -0.0625 -3.5625 -0.0625 0 0 Z " fill="#7A7A7A" transform="translate(242.5625,280.0625)"/>
<path d="M0 0 C1.816023 3.37923328 2.24584641 5.63852825 2.1875 9.5 C2.18105469 10.4384375 2.17460937 11.376875 2.16796875 12.34375 C2 15 2 15 1 19 C3.97 19 6.94 19 10 19 C10 20.32 10 21.64 10 23 C7.03 23 4.06 23 1 23 C1 26.96 1 30.92 1 35 C2.98 34.34 4.96 33.68 7 33 C7 33.66 7 34.32 7 35 C8.546875 34.9071875 8.546875 34.9071875 10.125 34.8125 C14.26656148 35.01289814 16.50462369 35.83619562 20 38 C20.33 38.66 20.66 39.32 21 40 C18.83125748 39.49396008 17.00032373 39.00016187 15 38 C10.07525061 37.57689009 10.07525061 37.57689009 5.6875 39.5 C5.130625 39.995 4.57375 40.49 4 41 C3.34 41 2.68 41 2 41 C2 39.68 2 38.36 2 37 C0.515 37.495 0.515 37.495 -1 38 C-1.18043297 25.30954808 -0.62102318 12.67316725 0 0 Z " fill="#7D7D7D" transform="translate(274,240)"/>
<path d="M0 0 C5.61 0 11.22 0 17 0 C17 2.97 17 5.94 17 9 C12.05 9 7.1 9 2 9 C1.67 7.35 1.34 5.7 1 4 C0.34 3.34 -0.32 2.68 -1 2 C-0.67 1.34 -0.34 0.68 0 0 Z " fill="#4F4F4F" transform="translate(253,271)"/>
<path d="M0 0 C0.33 0 0.66 0 1 0 C1.33 6.6 1.66 13.2 2 20 C2.33 18.68 2.66 17.36 3 16 C3.99 16 4.98 16 6 16 C6 18.31 6 20.62 6 23 C5.34 23 4.68 23 4 23 C3.67 24.98 3.34 26.96 3 29 C1.35 29 -0.3 29 -2 29 C-1.67 27.68 -1.34 26.36 -1 25 C-6.36190101 22.38592128 -11.03435204 20.50771472 -17 20 C-16.505 18.515 -16.505 18.515 -16 17 C-14.62686409 16.89014913 -13.25105487 16.81358009 -11.875 16.75 C-11.10929687 16.70359375 -10.34359375 16.6571875 -9.5546875 16.609375 C-7 17 -7 17 -1 21 C-0.67 14.07 -0.34 7.14 0 0 Z " fill="#C4C4C4" transform="translate(298,255)"/>
<path d="M0 0 C0.33 0 0.66 0 1 0 C2.40831873 17.90513405 1.42084037 34.37035358 -2 52 C-2.66 52 -3.32 52 -4 52 C-4.1546875 53.8253125 -4.1546875 53.8253125 -4.3125 55.6875 C-4.76219312 59.41069448 -5.78382778 61.91662995 -8 65 C-9.33656843 61.32659257 -8.61639643 59.24101018 -7.3125 55.625 C-1.4822214 37.42562338 -0.26420262 19.0089229 0 0 Z " fill="#D4D4D4" transform="translate(388,246)"/>
<path d="M0 0 C0 1.98 0 3.96 0 6 C-0.66 6 -1.32 6 -2 6 C-2.28875 6.886875 -2.5775 7.77375 -2.875 8.6875 C-3.82693759 11.49042733 -4.90062169 14.25155423 -6 17 C0.93 17.495 0.93 17.495 8 18 C8 18.99 8 19.98 8 21 C5.37472811 21.05382106 2.75055287 21.09358313 0.125 21.125 C-0.62136719 21.14175781 -1.36773437 21.15851563 -2.13671875 21.17578125 C-4.09194461 21.1933959 -6.04742021 21.10320189 -8 21 C-10 19 -10 19 -10.375 16.3125 C-10.01698693 13.15005121 -9.58428478 11.98738447 -8 9.375 C-5.66013174 6.08032043 -5.66013174 6.08032043 -6 2 C-1.125 0 -1.125 0 0 0 Z " fill="#EAEAEA" transform="translate(229,240)"/>
<path d="M0 0 C4.47172227 1.80588784 5.84308591 4.46547601 8.0234375 8.60546875 C9.41524372 12.0181776 9.45479599 14.36163205 9 18 C8 19 8 19 5.27734375 19.09765625 C4.17519531 19.08605469 3.07304687 19.07445312 1.9375 19.0625 C0.28041016 19.04896484 0.28041016 19.04896484 -1.41015625 19.03515625 C-2.26480469 19.02355469 -3.11945313 19.01195312 -4 19 C-4 19.66 -4 20.32 -4 21 C-6.4375 20.1875 -6.4375 20.1875 -9 19 C-9.33 18.01 -9.66 17.02 -10 16 C-8.02 15.34 -6.04 14.68 -4 14 C-4 14.66 -4 15.32 -4 16 C-0.7 16 2.6 16 6 16 C5.566875 15.18015625 5.13375 14.3603125 4.6875 13.515625 C3.8521875 11.89914063 3.8521875 11.89914063 3 10.25 C2.443125 9.18265625 1.88625 8.1153125 1.3125 7.015625 C0 4 0 4 0 0 Z " fill="#EBEBEB" transform="translate(250,242)"/>
<path d="M0 0 C3.5625 0.375 3.5625 0.375 5.5625 2 C6.91448496 5.21096428 6.56701167 7.07446166 5.5625 10.375 C2.32996204 12.53002531 1.31099077 12.84356135 -2.4375 12.375 C-4.25 11.3125 -4.25 11.3125 -5.4375 9.375 C-5.75 5.8125 -5.75 5.8125 -5.4375 2.375 C-3.4375 0.375 -3.4375 0.375 0 0 Z " fill="#545454" transform="translate(255.4375,352.625)"/>
<path d="M0 0 C2.1875 0.0625 2.1875 0.0625 5 1 C6.48271382 2.71438785 7.68040829 4.48872719 8.88671875 6.40625 C9.92360931 8.16061772 9.92360931 8.16061772 12 9 C12 11.31 12 13.62 12 16 C10.02 15.34 8.04 14.68 6 14 C5.814375 12.6078125 5.814375 12.6078125 5.625 11.1875 C5.18466918 7.86074765 5.18466918 7.86074765 3 5 C2.34 5 1.68 5 1 5 C-0.65 7.97 -2.3 10.94 -4 14 C-4.99 14 -5.98 14 -7 14 C-6.69723124 7.94462479 -3.72245962 4.48516542 0 0 Z " fill="#DADADA" transform="translate(237,224)"/>
<path d="M0 0 C3.5 0.25 3.5 0.25 5.5 2.25 C6.05416667 8.34583333 6.05416667 8.34583333 4.3125 11.1875 C1.83950907 12.63718434 0.32115488 12.67317323 -2.5 12.25 C-4.3125 11.1875 -4.3125 11.1875 -5.5 9.25 C-5.8125 5.6875 -5.8125 5.6875 -5.5 2.25 C-3.5 0.25 -3.5 0.25 0 0 Z " fill="#7A7A7A" transform="translate(329.5,352.75)"/>
<path d="M0 0 C0.78375 0.04125 1.5675 0.0825 2.375 0.125 C1.385 0.62 1.385 0.62 0.375 1.125 C0.705 2.115 1.035 3.105 1.375 4.125 C0.715 4.125 0.055 4.125 -0.625 4.125 C-0.295 9.405 0.035 14.685 0.375 20.125 C1.365 19.135 2.355 18.145 3.375 17.125 C2.76222388 20.08675123 2.12127478 21.50558783 0.375 24.125 C-3.5 23.25 -3.5 23.25 -4.625 22.125 C-4.87535974 18.81983066 -4.81021952 15.50103959 -4.8125 12.1875 C-4.82474609 11.25486328 -4.83699219 10.32222656 -4.84960938 9.36132812 C-4.85154297 8.46994141 -4.85347656 7.57855469 -4.85546875 6.66015625 C-4.86163208 5.42857788 -4.86163208 5.42857788 -4.86791992 4.17211914 C-4.47075007 0.8251149 -3.26031801 0.15525324 0 0 Z " fill="#DEDEDE" transform="translate(199.625,258.875)"/>
<path d="M0 0 C0.33 0 0.66 0 1 0 C1.15855469 1.24652344 1.31710938 2.49304688 1.48046875 3.77734375 C2.75093616 13.22189772 4.34575647 22.27437785 7.28588867 31.35327148 C8.6561931 35.60158802 9.48607881 39.58598797 10 44 C9.34 44 8.68 44 8 44 C2.4937393 29.96354854 -2.74327374 15.20727834 0 0 Z " fill="#D2D2D2" transform="translate(115,268)"/>
<path d="M0 0 C1.32 0.33 2.64 0.66 4 1 C4 5.95 4 10.9 4 16 C5.65 16.33 7.3 16.66 9 17 C9 19.64 9 22.28 9 25 C8.01 25.33 7.02 25.66 6 26 C5.34 25.34 4.68 24.68 4 24 C4.66 24 5.32 24 6 24 C6 22.35 6 20.7 6 19 C5.01 19 4.02 19 3 19 C2.67 20.65 2.34 22.3 2 24 C1.67 24 1.34 24 1 24 C0.67 16.08 0.34 8.16 0 0 Z " fill="#F4F4F4" transform="translate(298,252)"/>
<path d="M0 0 C6 0 6 0 7.9375 1.1875 C9 3 9 3 8.75 5.5625 C8 8 8 8 7 10 C7.89363605 12.60931266 7.89363605 12.60931266 9 15 C8.01 14.67 7.02 14.34 6 14 C5.3125 11.9375 5.3125 11.9375 5 10 C3.68 10 2.36 10 1 10 C1 11.65 1 13.3 1 15 C0.67 15 0.34 15 0 15 C0 10.05 0 5.1 0 0 Z " fill="#BDBDBD" transform="translate(233,144)"/>
<path d="M0 0 C2.31 0 4.62 0 7 0 C7.66 0.66 8.32 1.32 9 2 C8.6730244 4.61580479 8.17960932 6.64078137 7 9 C7.89363605 11.60931266 7.89363605 11.60931266 9 14 C8.34 14 7.68 14 7 14 C6.731875 13.360625 6.46375 12.72125 6.1875 12.0625 C5.11332248 9.66868314 5.11332248 9.66868314 2 9 C2 10.65 2 12.3 2 14 C1.34 14 0.68 14 0 14 C0 9.38 0 4.76 0 0 Z " fill="#C1C1C1" transform="translate(221,166)"/>
<path d="M0 0 C6 0 6 0 7.9375 1.1875 C9 3 9 3 8.6875 5.5 C8.460625 6.325 8.23375 7.15 8 8 C8 10.62113708 8.31292445 12.50935112 9 15 C8.34 15 7.68 15 7 15 C6.525625 14.195625 6.05125 13.39125 5.5625 12.5625 C4.20016328 9.7081924 4.20016328 9.7081924 1 9 C1 10.98 1 12.96 1 15 C0.67 15 0.34 15 0 15 C0 10.05 0 5.1 0 0 Z " fill="#C1C1C1" transform="translate(286,165)"/>
<path d="M0 0 C6.6 0 13.2 0 20 0 C20 0.66 20 1.32 20 2 C19.2575 2.226875 18.515 2.45375 17.75 2.6875 C14.48930737 4.24373966 13.16484695 6.163304 11 9 C10.34 9 9.68 9 9 9 C8.401875 8.21625 7.80375 7.4325 7.1875 6.625 C4.87559356 3.85071227 3.39491889 3.03733633 0 2 C0 1.34 0 0.68 0 0 Z " fill="#555555" transform="translate(218,271)"/>
<path d="M0 0 C1.98 0 3.96 0 6 0 C6.89141824 3.31098205 7.62916167 6.5882874 8 10 C7.34 10.66 6.68 11.32 6 12 C4.02 12 2.04 12 0 12 C0 8.04 0 4.08 0 0 Z " fill="#B9B9B9" transform="translate(188,353)"/>
<path d="M0 0 C3.83824068 -0.64568535 7.1761396 -0.80399116 11 0 C14.78226467 2.78806938 17.6702245 5.91570222 20 10 C20.30078125 13.2734375 20.30078125 13.2734375 20 16 C19 17 19 17 15.18359375 17.09765625 C13.60153318 17.09098089 12.01948841 17.07901875 10.4375 17.0625 C9.63119141 17.05798828 8.82488281 17.05347656 7.99414062 17.04882812 C5.99606244 17.03700518 3.99802217 17.01906914 2 17 C2 16.67 2 16.34 2 16 C6.95 15.67 11.9 15.34 17 15 C16.15612088 10.78060442 15.5839178 8.38019097 12.80859375 5.16015625 C9.03277452 2.73808646 4.29842398 3.59349405 0 4 C0 2.68 0 1.36 0 0 Z " fill="#717171" transform="translate(275,240)"/>
<path d="M0 0 C1.37478516 0.01740234 1.37478516 0.01740234 2.77734375 0.03515625 C3.69644531 0.04417969 4.61554688 0.05320313 5.5625 0.0625 C6.27277344 0.07410156 6.98304688 0.08570313 7.71484375 0.09765625 C7.71484375 0.75765625 7.71484375 1.41765625 7.71484375 2.09765625 C4.74484375 2.09765625 1.77484375 2.09765625 -1.28515625 2.09765625 C-1.28515625 3.74765625 -1.28515625 5.39765625 -1.28515625 7.09765625 C1.02484375 7.09765625 3.33484375 7.09765625 5.71484375 7.09765625 C5.71484375 7.75765625 5.71484375 8.41765625 5.71484375 9.09765625 C3.73484375 9.09765625 1.75484375 9.09765625 -0.28515625 9.09765625 C-0.28515625 10.41765625 -0.28515625 11.73765625 -0.28515625 13.09765625 C2.35484375 13.09765625 4.99484375 13.09765625 7.71484375 13.09765625 C7.71484375 13.75765625 7.71484375 14.41765625 7.71484375 15.09765625 C4.08484375 15.09765625 0.45484375 15.09765625 -3.28515625 15.09765625 C-3.31201037 12.78521833 -3.33148466 10.47269355 -3.34765625 8.16015625 C-3.35925781 6.87238281 -3.37085938 5.58460938 -3.3828125 4.2578125 C-3.2555354 0.13912544 -3.2555354 0.13912544 0 0 Z " fill="#A3A3A3" transform="translate(275.28515625,164.90234375)"/>
<path d="M0 0 C3 1 3 1 4.38671875 3.43359375 C4.81597656 4.42488281 5.24523437 5.41617188 5.6875 6.4375 C6.34298828 7.92056641 6.34298828 7.92056641 7.01171875 9.43359375 C8 12 8 12 8 14 C7.34 14 6.68 14 6 14 C5.67 13.34 5.34 12.68 5 12 C3.10466658 11.53476937 3.10466658 11.53476937 0.9375 11.375 C-0.361875 11.25125 -1.66125 11.1275 -3 11 C-3 11.99 -3 12.98 -3 14 C-3.66 14 -4.32 14 -5 14 C-4.54636829 12.41531323 -4.08688548 10.83230076 -3.625 9.25 C-3.36976563 8.36828125 -3.11453125 7.4865625 -2.8515625 6.578125 C-2.0790066 4.23919428 -1.16374324 2.16557438 0 0 Z " fill="#ABABAB" transform="translate(236,166)"/>
<path d="M0 0 C2.4375 0.8125 2.4375 0.8125 4.4375 2.8125 C4.6875 5.3125 4.6875 5.3125 4.4375 7.8125 C2.4375 9.8125 2.4375 9.8125 -0.5625 10.0625 C-3.5625 9.8125 -3.5625 9.8125 -5.5625 7.8125 C-5.93046448 4.94237704 -5.93759409 3.40475382 -4.375 0.9375 C-2.5625 -0.1875 -2.5625 -0.1875 0 0 Z " fill="#ECECEC" transform="translate(214.5625,282.1875)"/>
<path d="M0 0 C0.66 0 1.32 0 2 0 C4.53309233 4.64203897 6.46515599 8.65155992 7 14 C6.34 13.34 5.68 12.68 5 12 C2.34462628 11.43479997 -0.29144713 11.26211802 -3 11 C-3 11.99 -3 12.98 -3 14 C-3.66 14 -4.32 14 -5 14 C-4.34580901 8.93001981 -2.1453591 4.58009223 0 0 Z " fill="#B8B8B8" transform="translate(248,145)"/>
<path d="M0 0 C0.66 0 1.32 0 2 0 C3.32 2.64 4.64 5.28 6 8 C7.32 5.69 8.64 3.38 10 1 C10.66 1 11.32 1 12 1 C12 4.63 12 8.26 12 12 C11.34 12 10.68 12 10 12 C9.67 11.01 9.34 10.02 9 9 C8.01 10.485 8.01 10.485 7 12 C6.34 12 5.68 12 5 12 C4.34 10.68 3.68 9.36 3 8 C2.67 9.32 2.34 10.64 2 12 C1.34 12 0.68 12 0 12 C0 8.04 0 4.08 0 0 Z " fill="#AAAAAA" transform="translate(242,336)"/>
<path d="M0 0 C0.33 0 0.66 0 1 0 C1 4.29 1 8.58 1 13 C2.65 12.01 4.3 11.02 6 10 C6.66 10 7.32 10 8 10 C8 10.66 8 11.32 8 12 C9.546875 11.9071875 9.546875 11.9071875 11.125 11.8125 C15.26656148 12.01289814 17.50462369 12.83619562 21 15 C21.33 15.66 21.66 16.32 22 17 C19.83125748 16.49396008 18.00032373 16.00016187 16 15 C11.07525061 14.57689009 11.07525061 14.57689009 6.6875 16.5 C6.130625 16.995 5.57375 17.49 5 18 C4.34 18 3.68 18 3 18 C3 16.68 3 15.36 3 14 C2.01 14.33 1.02 14.66 0 15 C0 10.05 0 5.1 0 0 Z " fill="#DDDDDD" transform="translate(273,263)"/>
<path d="M0 0 C0.66 0 1.32 0 2 0 C2.33 1.32 2.66 2.64 3 4 C3.66 4 4.32 4 5 4 C5.38218767 5.65614657 5.71395102 7.32457024 6 9 C5 10 5 10 2.86694336 10.11352539 C1.95050049 10.10828857 1.03405762 10.10305176 0.08984375 10.09765625 C-0.89951172 10.09443359 -1.88886719 10.09121094 -2.90820312 10.08789062 C-3.94912109 10.07951172 -4.99003906 10.07113281 -6.0625 10.0625 C-7.10728516 10.05798828 -8.15207031 10.05347656 -9.22851562 10.04882812 C-11.8190666 10.03699913 -14.40950559 10.02051689 -17 10 C-16.67 9.34 -16.34 8.68 -16 8 C-13.45058627 7.68758629 -10.99638487 7.48696579 -8.4375 7.375 C-7.72658203 7.33632813 -7.01566406 7.29765625 -6.28320312 7.2578125 C-4.52257575 7.16328217 -2.76132272 7.08054183 -1 7 C-0.67 4.69 -0.34 2.38 0 0 Z " fill="#F3F3F3" transform="translate(271,273)"/>
<path d="M0 0 C0.66 0 1.32 0 2 0 C2 1.98 2 3.96 2 6 C4.64 6 7.28 6 10 6 C10 4.02 10 2.04 10 0 C10.66 0 11.32 0 12 0 C12 4.62 12 9.24 12 14 C11.34 14 10.68 14 10 14 C10 12.02 10 10.04 10 8 C7.36 8 4.72 8 2 8 C2 9.98 2 11.96 2 14 C1.34 14 0.68 14 0 14 C0 9.38 0 4.76 0 0 Z " fill="#B2B2B2" transform="translate(270,145)"/>
<path d="M0 0 C0.66 0.33 1.32 0.66 2 1 C1.01 1.495 1.01 1.495 0 2 C0 2.66 0 3.32 0 4 C-0.91523438 3.97679687 -1.83046875 3.95359375 -2.7734375 3.9296875 C-3.96195313 3.91164063 -5.15046875 3.89359375 -6.375 3.875 C-7.55835938 3.85179687 -8.74171875 3.82859375 -9.9609375 3.8046875 C-13.11153817 3.67133771 -13.11153817 3.67133771 -15 6 C-14.67 6.66 -14.34 7.32 -14 8 C-14.99 8 -15.98 8 -17 8 C-17 6.02 -17 4.04 -17 2 C-11.20987807 -1.47407316 -6.49144116 -2.16381372 0 0 Z " fill="#E5E5E5" transform="translate(221,273)"/>
<path d="M0 0 C3 1 3 1 4.55078125 4.08203125 C6.03641068 7.87799374 7.14738621 11.74622592 8.1875 15.6875 C8.36474609 16.33783203 8.54199219 16.98816406 8.72460938 17.65820312 C9.58850297 20.9303252 10 23.583092 10 27 C9.34 27 8.68 27 8 27 C6.25270093 23.84286305 5.37430949 20.82116815 4.5625 17.3125 C3.45272854 12.68656489 2.15029158 8.22081644 0.55078125 3.7421875 C0 2 0 2 0 0 Z " fill="#DEDEDE" transform="translate(378,197)"/>
<path d="M0 0 C1.875 0.25 1.875 0.25 4 1 C5.125 3 5.125 3 6 5 C6.66 5.33 7.32 5.66 8 6 C7.67 6.66 7.34 7.32 7 8 C5.68 8 4.36 8 3 8 C3 10.64 3 13.28 3 16 C2.01 16.33 1.02 16.66 0 17 C-0.33 13.7 -0.66 10.4 -1 7 C0.32 6.67 1.64 6.34 3 6 C3 5.34 3 4.68 3 4 C2.01 3.67 1.02 3.34 0 3 C0 2.01 0 1.02 0 0 Z " fill="#ECECEC" transform="translate(221,275)"/>
<path d="M0 0 C0.66 0.33 1.32 0.66 2 1 C2 5.62 2 10.24 2 15 C1.67 15 1.34 15 1 15 C0.67 12.36 0.34 9.72 0 7 C-3.3 7 -6.6 7 -10 7 C-10 5.35 -10 3.7 -10 2 C-6.7 2 -3.4 2 0 2 C0 1.34 0 0.68 0 0 Z " fill="#5A5A5A" transform="translate(284,165)"/>
<path d="M0 0 C1.32 0.33 2.64 0.66 4 1 C3.01 1 2.02 1 1 1 C1.66 3.31 2.32 5.62 3 8 C2.34 8 1.68 8 1 8 C0.95875 8.5775 0.9175 9.155 0.875 9.75 C-0.44065958 13.13312465 -2.96552364 14.19222685 -6 16 C-6.66 15.67 -7.32 15.34 -8 15 C-7.34 12.03 -6.68 9.06 -6 6 C-4.35 6 -2.7 6 -1 6 C-0.67 4.02 -0.34 2.04 0 0 Z " fill="#5D5D5D" transform="translate(302,278)"/>
<path d="M0 0 C0 1.65 0 3.3 0 5 C-4.62 5 -9.24 5 -14 5 C-14 3.35 -14 1.7 -14 0 C-12.04235617 -0.19456705 -10.08384679 -0.38044247 -8.125 -0.5625 C-6.48917969 -0.71912109 -6.48917969 -0.71912109 -4.8203125 -0.87890625 C-2 -1 -2 -1 0 0 Z " fill="#555555" transform="translate(260,261)"/>
<path d="M0 0 C3.24208567 0.35049575 4.61527704 0.56221181 6.8125 3.0625 C7.204375 3.701875 7.59625 4.34125 8 5 C7.01 6.485 7.01 6.485 6 8 C1.25 6.125 1.25 6.125 -1 5 C-5.55547083 4.74214316 -8.8780636 5.00148538 -13 7 C-10.13301658 3.50586395 -8.15849852 1.71163126 -3.6875 1.1875 C-1.8621875 1.0946875 -1.8621875 1.0946875 0 1 C0 0.67 0 0.34 0 0 Z " fill="#A7A7A7" transform="translate(246,273)"/>
<path d="M0 0 C1.65 0 3.3 0 5 0 C7 2 7 2 7.1953125 4.3828125 C7.17210937 5.28773438 7.14890625 6.19265625 7.125 7.125 C7.10695312 8.03507812 7.08890625 8.94515625 7.0703125 9.8828125 C7.04710937 10.58148438 7.02390625 11.28015625 7 12 C6.566875 11.525625 6.13375 11.05125 5.6875 10.5625 C3.97690387 8.76313043 3.97690387 8.76313043 1 8 C0.67 9.32 0.34 10.64 0 12 C0 8.04 0 4.08 0 0 Z " fill="#979797" transform="translate(210,336)"/>
<path d="M0 0 C0.99 0 1.98 0 3 0 C4.19354869 3.72983966 4.40965996 7.10823039 4 11 C2 13.9375 2 13.9375 -1 16 C-3.80743814 16.40476927 -6.14074541 16.24230971 -9 16 C-7.38371879 12.76743757 -4.23006285 12.32663296 -1 11 C0.25949049 9.96593327 0.25949049 9.96593327 0.09765625 7.71484375 C0.08605469 6.79832031 0.07445312 5.88179688 0.0625 4.9375 C0.04896484 3.55884766 0.04896484 3.55884766 0.03515625 2.15234375 C0.02355469 1.44207031 0.01195312 0.73179687 0 0 Z " fill="#EDEDED" transform="translate(248,281)"/>
<path d="M0 0 C3.21733751 0.35696007 5.25506505 1.12657772 7.67578125 3.296875 C7.67578125 3.956875 7.67578125 4.616875 7.67578125 5.296875 C6.02578125 5.956875 4.37578125 6.616875 2.67578125 7.296875 C2.34578125 6.966875 2.01578125 6.636875 1.67578125 6.296875 C-0.65239839 5.92926769 -2.98605725 5.59445919 -5.32421875 5.296875 C-4.66421875 4.636875 -4.00421875 3.976875 -3.32421875 3.296875 C-4.08734375 3.296875 -4.85046875 3.296875 -5.63671875 3.296875 C-7.53255208 3.296875 -9.42838542 3.296875 -11.32421875 3.296875 C-8.1388139 -0.74367209 -4.81628049 -0.12758359 0 0 Z " fill="#A6A6A6" transform="translate(216.32421875,275.703125)"/>
<path d="M0 0 C0.99 0 1.98 0 3 0 C3.33 0.99 3.66 1.98 4 3 C3.34 3 2.68 3 2 3 C2 3.99 2 4.98 2 6 C2.99 6 3.98 6 5 6 C5 4.35 5 2.7 5 1 C5.99 1.33 6.98 1.66 8 2 C8.125 4.375 8.125 4.375 8 7 C6 9 6 9 3 9.25 C0 9 0 9 -2 7 C-2.25 4.5 -2.25 4.5 -2 2 C-1.34 1.34 -0.68 0.68 0 0 Z " fill="#EBEBEB" transform="translate(239,283)"/>
<path d="M0 0 C0.66 0 1.32 0 2 0 C2 0.66 2 1.32 2 2 C6.95 2 11.9 2 17 2 C17 2.33 17 2.66 17 3 C12.05 3.33 7.1 3.66 2 4 C8.93 4.33 15.86 4.66 23 5 C23 7.64 23 10.28 23 13 C22.67 13 22.34 13 22 13 C22 10.69 22 8.38 22 6 C14.08 6.33 6.16 6.66 -2 7 C-1 1 -1 1 0 0 Z " fill="#CECECE" transform="translate(253,278)"/>
<path d="M0 0 C9.24 0 18.48 0 28 0 C28 3.3 28 6.6 28 10 C27.67 10 27.34 10 27 10 C27 7.03 27 4.06 27 1 C21.39 1 15.78 1 10 1 C10.66 2.65 11.32 4.3 12 6 C8.55639368 6 7.25204608 5.20408468 4.3125 3.5 C3.50425781 3.0359375 2.69601563 2.571875 1.86328125 2.09375 C1.24839844 1.7328125 0.63351563 1.371875 0 1 C0 0.67 0 0.34 0 0 Z " fill="#676767" transform="translate(243,270)"/>
<path d="M0 0 C5.22306897 3.79859562 10.91835536 8.75506609 13 15 C12.34 15 11.68 15 11 15 C10.67 15.66 10.34 16.32 10 17 C0 5.95890411 0 5.95890411 0 0 Z " fill="#D6D6D6" transform="translate(287,237)"/>
<path d="M0 0 C0.66 0 1.32 0 2 0 C2.268125 0.94875 2.53625 1.8975 2.8125 2.875 C3.74986588 6.25267273 3.74986588 6.25267273 7 8 C6.875 9.6875 6.875 9.6875 6 12 C3.03 14.475 3.03 14.475 0 17 C0 11.39 0 5.78 0 0 Z " fill="#545454" transform="translate(199,263)"/>
<path d="M0 0 C3.76687864 1.88343932 4.79421646 2.69132469 7 6 C7.33 4.02 7.66 2.04 8 0 C8.66 0 9.32 0 10 0 C10 3.63 10 7.26 10 11 C6.23312136 9.11656068 5.20578354 8.30867531 3 5 C2.67 7.31 2.34 9.62 2 12 C1.34 12 0.68 12 0 12 C0 8.04 0 4.08 0 0 Z " fill="#ABABAB" transform="translate(338,353)"/>
<path d="M0 0 C0.33 0.66 0.66 1.32 1 2 C1.66 2.33 2.32 2.66 3 3 C-1.77399381 7.93312693 -1.77399381 7.93312693 -6.4375 8.1875 C-10 8 -10 8 -13 6 C-13 5.01 -13 4.02 -13 3 C-12.22914063 3.03480469 -11.45828125 3.06960938 -10.6640625 3.10546875 C-9.15972656 3.14607422 -9.15972656 3.14607422 -7.625 3.1875 C-6.62726563 3.22230469 -5.62953125 3.25710938 -4.6015625 3.29296875 C-3.31378906 3.14794922 -3.31378906 3.14794922 -2 3 C-1.34 2.01 -0.68 1.02 0 0 Z " fill="#DBDBDB" transform="translate(220,290)"/>
<path d="M0 0 C1.65 0.33 3.3 0.66 5 1 C5.04241723 3.33294775 5.04092937 5.66702567 5 8 C4 9 4 9 0.4375 9.0625 C-0.696875 9.041875 -1.83125 9.02125 -3 9 C-4.35439668 6.29120665 -4.06501451 3.99066732 -4 1 C-3.01 1 -2.02 1 -1 1 C-1 2.65 -1 4.3 -1 6 C-0.01 6 0.98 6 2 6 C1.34 4.02 0.68 2.04 0 0 Z " fill="#E9E9E9" transform="translate(285,283)"/>
<path d="M0 0 C0 1.98 0 3.96 0 6 C-0.66 6 -1.32 6 -2 6 C-2.20625 6.928125 -2.4125 7.85625 -2.625 8.8125 C-4 12 -4 12 -7.125 13.875 C-8.548125 14.431875 -8.548125 14.431875 -10 15 C-9.03698001 12.04215289 -8.05314053 9.12989908 -6.875 6.25 C-5.87918458 4.09169027 -5.87918458 4.09169027 -6 2 C-1.125 0 -1.125 0 0 0 Z " fill="#D2D2D2" transform="translate(229,240)"/>
<path d="M0 0 C0.66 0 1.32 0 2 0 C2.33 1.65 2.66 3.3 3 5 C4.65 3.35 6.3 1.7 8 0 C8.66 0.33 9.32 0.66 10 1 C8.68 2.32 7.36 3.64 6 5 C7.19899698 8.0831351 8.47700477 11.06279492 10 14 C9.34 14 8.68 14 8 14 C5 10.53846154 5 10.53846154 5 8 C4.01 8 3.02 8 2 8 C2 9.98 2 11.96 2 14 C1.34 14 0.68 14 0 14 C0 9.38 0 4.76 0 0 Z " fill="#BEBEBE" transform="translate(260,166)"/>
<path d="M0 0 C1.99954746 -0.04254356 4.00041636 -0.04080783 6 0 C7 1 7 1 7.125 3.4375 C7 6 7 6 6 8 C6.33 8.99 6.66 9.98 7 11 C5 11 5 11 2.875 9 C2.25625 8.34 1.6375 7.68 1 7 C0.67 8.32 0.34 9.64 0 11 C0 7.37 0 3.74 0 0 Z " fill="#BDBDBD" transform="translate(178,353)"/>
<path d="M0 0 C0.66 0 1.32 0 2 0 C2.67119549 1.4562545 3.33681807 2.91507867 4 4.375 C4.556875 5.59316406 4.556875 5.59316406 5.125 6.8359375 C6 9 6 9 6 11 C5.34 11 4.68 11 4 11 C4 10.34 4 9.68 4 9 C2.02 9 0.04 9 -2 9 C-2 9.66 -2 10.32 -2 11 C-2.66 11 -3.32 11 -4 11 C-3.5247412 9.35303396 -3.04468109 7.70745272 -2.5625 6.0625 C-2.29566406 5.14597656 -2.02882812 4.22945313 -1.75390625 3.28515625 C-1 1 -1 1 0 0 Z " fill="#8B8B8B" transform="translate(234,337)"/>
<path d="M0 0 C0.66 0 1.32 0 2 0 C2.67119549 1.4562545 3.33681807 2.91507867 4 4.375 C4.556875 5.59316406 4.556875 5.59316406 5.125 6.8359375 C6 9 6 9 6 11 C5.34 11 4.68 11 4 11 C4 10.34 4 9.68 4 9 C2.02 9 0.04 9 -2 9 C-2 9.66 -2 10.32 -2 11 C-2.66 10.67 -3.32 10.34 -4 10 C-2.68 6.7 -1.36 3.4 0 0 Z " fill="#A0A0A0" transform="translate(201,353)"/>
<path d="M0 0 C3.5625 0.375 3.5625 0.375 5.5625 2 C6.91448496 5.21096428 6.56701167 7.07446166 5.5625 10.375 C2.32996204 12.53002531 1.31099077 12.84356135 -2.4375 12.375 C-4.25 11.3125 -4.25 11.3125 -5.4375 9.375 C-5.75 5.8125 -5.75 5.8125 -5.4375 2.375 C-3.4375 0.375 -3.4375 0.375 0 0 Z M-3.1875 2.5625 C-4.7217979 4.37148167 -4.7217979 4.37148167 -4.1875 7 C-3.66004355 9.3062407 -3.66004355 9.3062407 -2.4375 10.375 C0.02059998 10.6250773 0.02059998 10.6250773 2.5625 10.375 C4.80095015 8.54584359 4.80095015 8.54584359 4.875 5.875 C4.771875 5.05 4.66875 4.225 4.5625 3.375 C1.4625627 1.30837513 0.03309518 0.37709613 -3.1875 2.5625 Z " fill="#B7B7B7" transform="translate(255.4375,352.625)"/>
<path d="M0 0 C3 1 3 1 3.94921875 2.77734375 C4.19285156 3.49019531 4.43648437 4.20304687 4.6875 4.9375 C5.06455078 6.00291016 5.06455078 6.00291016 5.44921875 7.08984375 C6 9 6 9 6 11 C5.34 11 4.68 11 4 11 C4 10.34 4 9.68 4 9 C2.02 9 0.04 9 -2 9 C-2.33 9.66 -2.66 10.32 -3 11 C-2.69078116 9.54096742 -2.37751201 8.08279278 -2.0625 6.625 C-1.88847656 5.81289063 -1.71445313 5.00078125 -1.53515625 4.1640625 C-1 2 -1 2 0 0 Z " fill="#9F9F9F" transform="translate(169,353)"/>
<path d="M0 0 C0.66 0 1.32 0 2 0 C2.33 1.32 2.66 2.64 3 4 C3.66 3.67 4.32 3.34 5 3 C5.38218767 4.65614657 5.71395102 6.32457024 6 8 C5.67 8.33 5.34 8.66 5 9 C5.66 9.33 6.32 9.66 7 10 C7 10.66 7 11.32 7 12 C4.69 12 2.38 12 0 12 C0 8.04 0 4.08 0 0 Z " fill="#7D7D7D" transform="translate(265,353)"/>
<path d="M0 0 C2.64 0 5.28 0 8 0 C8 0.33 8 0.66 8 1 C6.02 1 4.04 1 2 1 C2 2.32 2 3.64 2 5 C3.65 5 5.3 5 7 5 C7 5.66 7 6.32 7 7 C5.35 7 3.7 7 2 7 C2 7.99 2 8.98 2 10 C4.31 10 6.62 10 9 10 C9 10.66 9 11.32 9 12 C2.84765625 12.09765625 2.84765625 12.09765625 1 12 C0 11 0 11 -0.09765625 8.49609375 C-0.08605469 7.48675781 -0.07445312 6.47742188 -0.0625 5.4375 C-0.05347656 4.42558594 -0.04445312 3.41367187 -0.03515625 2.37109375 C-0.02355469 1.58863281 -0.01195312 0.80617188 0 0 Z " fill="#A3A3A3" transform="translate(221,353)"/>
<path d="M0 0 C0.33 0.99 0.66 1.98 1 3 C0.030625 2.979375 -0.93875 2.95875 -1.9375 2.9375 C-4.87465895 2.64381501 -4.87465895 2.64381501 -6 4 C-6.04063832 5.66617115 -6.042721 7.33388095 -6 9 C-3.525 9.99 -3.525 9.99 -1 11 C-1 10.01 -1 9.02 -1 8 C-1.66 8 -2.32 8 -3 8 C-3 7.34 -3 6.68 -3 6 C-1.68 6 -0.36 6 1 6 C1 7.98 1 9.96 1 12 C-5.40504648 12.48339973 -5.40504648 12.48339973 -8 10.375 C-9.35198496 7.16403572 -9.00451167 5.30053834 -8 2 C-4.77208445 -0.1519437 -3.71599191 -0.20086443 0 0 Z " fill="#A8A8A8" transform="translate(312,336)"/>
<path d="M0 0 C0.33 0 0.66 0 1 0 C1.30487805 7.92682927 1.30487805 7.92682927 -1 11 C-4.9563029 14.16504232 -8.02666392 14.29254918 -13 14 C-12.40316406 13.73832031 -11.80632812 13.47664063 -11.19140625 13.20703125 C-6.06748604 10.38476504 -2.8514657 4.95254569 0 0 Z " fill="#DDDDDD" transform="translate(295,284)"/>
<path d="M0 0 C2.64 0 5.28 0 8 0 C8 0.33 8 0.66 8 1 C6.02 1 4.04 1 2 1 C2 2.32 2 3.64 2 5 C3.65 5 5.3 5 7 5 C7 5.66 7 6.32 7 7 C5.35 7 3.7 7 2 7 C2 7.99 2 8.98 2 10 C3.98 10 5.96 10 8 10 C8 10.66 8 11.32 8 12 C5.36 12 2.72 12 0 12 C0 8.04 0 4.08 0 0 Z " fill="#A7A7A7" transform="translate(285,353)"/>
<path d="M0 0 C8.60363924 -0.68829114 8.60363924 -0.68829114 12.5625 1.875 C13.366875 2.57625 14.17125 3.2775 15 4 C15 4.66 15 5.32 15 6 C14.01 6.33 13.02 6.66 12 7 C10 6 8 5 6 4 C2.26228166 3.2863276 2.26228166 3.2863276 -1 3 C-0.67 2.01 -0.34 1.02 0 0 Z " fill="#E3E3E3" transform="translate(282,272)"/>
<path d="M0 0 C1.32 0.33 2.64 0.66 4 1 C4 5.95 4 10.9 4 16 C5.32 16.33 6.64 16.66 8 17 C6.02 17 4.04 17 2 17 C1.66408104 14.72954771 1.33134935 12.45862367 1 10.1875 C0.814375 8.92292969 0.62875 7.65835937 0.4375 6.35546875 C0 3 0 3 0 0 Z " fill="#E9E9E9" transform="translate(298,252)"/>
<path d="M0 0 C0.66 0 1.32 0 2 0 C1.23213323 4.1480638 0.18920479 8.18535931 -0.9375 12.25 C-1.27652344 13.49265625 -1.61554688 14.7353125 -1.96484375 16.015625 C-3 19 -3 19 -5 20 C-5.66 20.99 -6.32 21.98 -7 23 C-6.40218212 17.76909357 -5.21833115 13.09343177 -3.5 8.125 C-3.27441406 7.44953125 -3.04882812 6.7740625 -2.81640625 6.078125 C-1.1409337 1.1409337 -1.1409337 1.1409337 0 0 Z " fill="#C3C3C3" transform="translate(123,197)"/>
<path d="M0 0 C0.33 0 0.66 0 1 0 C1.185625 1.11375 1.37125 2.2275 1.5625 3.375 C2.036875 4.57125 2.51125 5.7675 3 7 C6.51400668 8.54086322 6.51400668 8.54086322 10 9 C8.02 9.99 8.02 9.99 6 11 C8.97 11.495 8.97 11.495 12 12 C12 12.33 12 12.66 12 13 C4.87340302 13.48315912 4.87340302 13.48315912 1.0625 11.375 C-1.43199957 8.50254595 -1.91956698 6.78035175 -2 3 C-1.34 2.01 -0.68 1.02 0 0 Z " fill="#D7D7D7" transform="translate(234,285)"/>
<path d="M0 0 C3.65353155 1.43643121 4.93978166 3.05835031 6.75 6.5 C7.17796875 7.2940625 7.6059375 8.088125 8.046875 8.90625 C9 11 9 11 9 13 C8.34 13 7.68 13 7 13 C6.67 13.99 6.34 14.98 6 16 C4.9901527 14.08850332 3.99245505 12.17058431 3 10.25 C2.443125 9.18265625 1.88625 8.1153125 1.3125 7.015625 C0 4 0 4 0 0 Z " fill="#E0E0E0" transform="translate(250,242)"/>
<path d="M0 0 C2.25 -0.3125 2.25 -0.3125 5 0 C9 4.10810811 9 4.10810811 9 7 C6.03 7 3.06 7 0 7 C0 4.69 0 2.38 0 0 Z " fill="#5A5A5A" transform="translate(279,246)"/>
<path d="M0 0 C2.01822917 0.06510417 4.03645833 0.13020833 6.0546875 0.1953125 C6.3846875 0.8553125 6.7146875 1.5153125 7.0546875 2.1953125 C4.0846875 2.1953125 1.1146875 2.1953125 -1.9453125 2.1953125 C-1.9659375 3.4946875 -1.9865625 4.7940625 -2.0078125 6.1328125 C-2.01941406 6.86371094 -2.03101563 7.59460938 -2.04296875 8.34765625 C-2.15092434 10.21263391 -2.15092434 10.21263391 -0.9453125 11.1953125 C1.72527601 11.33646411 4.37900988 11.23778357 7.0546875 11.1953125 C6.7246875 12.1853125 6.3946875 13.1753125 6.0546875 14.1953125 C2.8046875 14.5078125 2.8046875 14.5078125 -0.9453125 14.1953125 C-3.4453125 12.1328125 -3.4453125 12.1328125 -4.9453125 9.1953125 C-4.64943107 0.46681035 -4.64943107 0.46681035 0 0 Z " fill="#BBBBBB" transform="translate(249.9453125,165.8046875)"/>
<path d="M0 0 C0.33 0 0.66 0 1 0 C1.33 2.31 1.66 4.62 2 7 C2.33 7 2.66 7 3 7 C3.25 9.3125 3.25 9.3125 3 12 C1.3125 13.9375 1.3125 13.9375 -1 15 C-3.75 14.1875 -3.75 14.1875 -6 13 C-4.68 12.34 -3.36 11.68 -2 11 C-2.33 9.35 -2.66 7.7 -3 6 C-2.01 5.67 -1.02 5.34 0 5 C0 3.35 0 1.7 0 0 Z " fill="#555555" transform="translate(177,353)"/>
<path d="M0 0 C3.99996286 1.33332095 4.83782337 3.4957827 7 7 C7.33 4.69 7.66 2.38 8 0 C8.33 0 8.66 0 9 0 C9 3.63 9 7.26 9 11 C8.34 11 7.68 11 7 11 C5.61061923 9.03852126 4.2739589 7.03833424 3 5 C2.67 6.98 2.34 8.96 2 11 C1.34 11 0.68 11 0 11 C0 7.37 0 3.74 0 0 Z " fill="#B6B6B6" transform="translate(273,337)"/>
<path d="M0 0 C3.3 0 6.6 0 10 0 C9.34 1.32 8.68 2.64 8 4 C5.03 3.505 5.03 3.505 2 3 C2 5.97 2 8.94 2 12 C1.34 12 0.68 12 0 12 C0 8.04 0 4.08 0 0 Z " fill="#EDEDED" transform="translate(276,243)"/>
<path d="M0 0 C3.63 0 7.26 0 11 0 C11 0.66 11 1.32 11 2 C9.68 2 8.36 2 7 2 C7 6.29 7 10.58 7 15 C6.34 15 5.68 15 5 15 C5 10.71 5 6.42 5 2 C3.35 2 1.7 2 0 2 C0 1.34 0 0.68 0 0 Z " fill="#A8A8A8" transform="translate(207,165)"/>
<path d="M0 0 C0.66 0 1.32 0 2 0 C2.185625 1.1446875 2.185625 1.1446875 2.375 2.3125 C2.88102792 5.20267136 2.88102792 5.20267136 5 8 C5.68177416 9.32567199 6.35191436 10.65753688 7 12 C5.75 13.5625 5.75 13.5625 4 15 C2.68 14.67 1.36 14.34 0 14 C0 9.38 0 4.76 0 0 Z " fill="#585858" transform="translate(299,336)"/>
<path d="M0 0 C2.64 0 5.28 0 8 0 C8 0.66 8 1.32 8 2 C6.02 2 4.04 2 2 2 C2 3.32 2 4.64 2 6 C3.32 6.33 4.64 6.66 6 7 C4.68 7 3.36 7 2 7 C2 8.32 2 9.64 2 11 C3.98 11 5.96 11 8 11 C8 11.33 8 11.66 8 12 C5.36 12 2.72 12 0 12 C0 8.04 0 4.08 0 0 Z " fill="#AAAAAA" transform="translate(220,336)"/>
<path d="M0 0 C2.9375 1.5 2.9375 1.5 5 3 C4.01 3.495 4.01 3.495 3 4 C2.67 4.66 2.34 5.32 2 6 C1.01 5.34 0.02 4.68 -1 4 C-3.80127043 3.79502899 -5.47454232 3.73727116 -8 5 C-8 4.34 -8 3.68 -8 3 C-8.66 2.67 -9.32 2.34 -10 2 C-6.27420911 -0.48386059 -4.41288598 -0.3804212 0 0 Z " fill="#E4E4E4" transform="translate(245,277)"/>
<path d="M0 0 C1.670625 0.061875 1.670625 0.061875 3.375 0.125 C3.375 0.785 3.375 1.445 3.375 2.125 C2.59125 2.08375 1.8075 2.0425 1 2 C-1.78616119 1.83771266 -1.78616119 1.83771266 -3.625 4.125 C-3.30458603 6.72780568 -3.30458603 6.72780568 -2.625 9.125 C-0.975 9.455 0.675 9.785 2.375 10.125 C2.375 9.135 2.375 8.145 2.375 7.125 C1.715 6.795 1.055 6.465 0.375 6.125 C1.365 6.125 2.355 6.125 3.375 6.125 C3.417721 7.79111905 3.41563832 9.45882885 3.375 11.125 C2.375 12.125 2.375 12.125 0 12.375 C-2.625 12.125 -2.625 12.125 -4.4375 11.0625 C-6.271921 8.06949731 -5.93607576 5.54683337 -5.625 2.125 C-3.625 0.125 -3.625 0.125 0 0 Z " fill="#B1B1B1" transform="translate(159.625,352.875)"/>
<path d="M0 0 C2.5 2.3125 2.5 2.3125 5 5 C5 5.99 5 6.98 5 8 C-0.53846154 8.36923077 -0.53846154 8.36923077 -2.875 6.5 C-3.24625 6.005 -3.6175 5.51 -4 5 C-1.125 1.125 -1.125 1.125 0 0 Z " fill="#5E5E5E" transform="translate(372,151)"/>
<path d="M0 0 C1.6875 1.1875 1.6875 1.1875 2.6875 2.1875 C2.72813832 3.85367115 2.730221 5.52138095 2.6875 7.1875 C1.6975 7.5175 0.7075 7.8475 -0.3125 8.1875 C-0.6425 6.2075 -0.9725 4.2275 -1.3125 2.1875 C-2.3025 2.1875 -3.2925 2.1875 -4.3125 2.1875 C-3.9825 3.8375 -3.6525 5.4875 -3.3125 7.1875 C-4.3025 7.1875 -5.2925 7.1875 -6.3125 7.1875 C-6.3125 5.5375 -6.3125 3.8875 -6.3125 2.1875 C-6.9725 1.8575 -7.6325 1.5275 -8.3125 1.1875 C-2.91023829 -1.02251616 -2.91023829 -1.02251616 0 0 Z " fill="#A1A1A1" transform="translate(290.3125,281.8125)"/>
<path d="M0 0 C3.99996286 1.33332095 4.83782337 3.4957827 7 7 C7.33 4.69 7.66 2.38 8 0 C8.33 0 8.66 0 9 0 C9 3.63 9 7.26 9 11 C8.34 11 7.68 11 7 11 C5.7109375 9.46875 5.7109375 9.46875 4.375 7.5 C3.92898438 6.8503125 3.48296875 6.200625 3.0234375 5.53125 C2.51683594 4.77328125 2.51683594 4.77328125 2 4 C1.67 6.31 1.34 8.62 1 11 C0.67 11 0.34 11 0 11 C0 7.37 0 3.74 0 0 Z " fill="#BCBCBC" transform="translate(291,337)"/>
<path d="M0 0 C0.33 0 0.66 0 1 0 C0.71311275 7.00004889 -0.50404312 11.91026866 -4 18 C-5.5411298 14.04963563 -4.39859394 11.23429099 -3.125 7.3125 C-2.75632812 6.15363281 -2.38765625 4.99476563 -2.0078125 3.80078125 C-1 1 -1 1 0 0 Z " fill="#E0E0E0" transform="translate(384,293)"/>
<path d="M0 0 C0.66 0 1.32 0 2 0 C5.17117117 15.65765766 5.17117117 15.65765766 2 22 C1.34 14.74 0.68 7.48 0 0 Z " fill="#E4E4E4" transform="translate(386,224)"/>
<path d="M0 0 C3 1 3 1 4.6875 3.9375 C6 7 6 7 6 9 C5.34 9 4.68 9 4 9 C3.34 7.35 2.68 5.7 2 4 C-0.09782787 6.09782787 -0.6509396 7.3799207 -1.625 10.125 C-1.88539063 10.84945312 -2.14578125 11.57390625 -2.4140625 12.3203125 C-2.60742188 12.87460938 -2.80078125 13.42890625 -3 14 C-3.66 14 -4.32 14 -5 14 C-4.54636829 12.41531323 -4.08688548 10.83230076 -3.625 9.25 C-3.36976563 8.36828125 -3.11453125 7.4865625 -2.8515625 6.578125 C-2.0790066 4.23919428 -1.16374324 2.16557438 0 0 Z " fill="#BEBEBE" transform="translate(236,166)"/>
<path d="M0 0 C2.97 0 5.94 0 9 0 C9 0.66 9 1.32 9 2 C8.01 2 7.02 2 6 2 C6 5.3 6 8.6 6 12 C5.34 12 4.68 12 4 12 C4 8.7 4 5.4 4 2 C2.68 2 1.36 2 0 2 C0 1.34 0 0.68 0 0 Z " fill="#A0A0A0" transform="translate(198,336)"/>
<path d="M0 0 C1.79093191 -0.08086147 3.58289628 -0.13912702 5.375 -0.1875 C6.87160156 -0.23970703 6.87160156 -0.23970703 8.3984375 -0.29296875 C9.25695312 -0.19628906 10.11546875 -0.09960938 11 0 C11.66 0.99 12.32 1.98 13 3 C10.35541621 4.32229189 8.32238699 4.09677194 5.375 4.0625 C4.37210937 4.05347656 3.36921875 4.04445312 2.3359375 4.03515625 C1.56507813 4.02355469 0.79421875 4.01195312 0 4 C0 2.68 0 1.36 0 0 Z " fill="#616161" transform="translate(275,240)"/>
<path d="M0 0 C-0.7109375 1.953125 -0.7109375 1.953125 -2 4 C-4.1640625 4.609375 -4.1640625 4.609375 -6.625 4.75 C-7.44226563 4.80671875 -8.25953125 4.8634375 -9.1015625 4.921875 C-9.72804687 4.94765625 -10.35453125 4.9734375 -11 5 C-10.67 3.35 -10.34 1.7 -10 0 C-9.01 0 -8.02 0 -7 0 C-3.86650268 -1.04449911 -3.01031744 -0.93423645 0 0 Z " fill="#585858" transform="translate(233,339)"/>
<path d="M0 0 C1.32 0.33 2.64 0.66 4 1 C4 2.98 4 4.96 4 7 C5.98 7 7.96 7 10 7 C8 9 8 9 4.875 9.125 C3.92625 9.08375 2.9775 9.0425 2 9 C0 2.25 0 2.25 0 0 Z " fill="#EBEBEB" transform="translate(200,260)"/>
<path d="M0 0 C0.33 0.99 0.66 1.98 1 3 C1.99 3.33 2.98 3.66 4 4 C3.01 6.64 2.02 9.28 1 12 C-0.32 10.35 -1.64 8.7 -3 7 C-2.01 4.69 -1.02 2.38 0 0 Z " fill="#575757" transform="translate(230,168)"/>
<path d="M0 0 C2.22189824 2.22189824 2.92598892 4.08482708 4 7 C6.31 7 8.62 7 11 7 C11 7.99 11 8.98 11 10 C3.67784643 10.36010591 3.67784643 10.36010591 1 8.9375 C-0.52690415 5.97912322 -0.18468872 3.26283401 0 0 Z " fill="#787878" transform="translate(207,284)"/>
<path d="M0 0 C4.75 0.75 4.75 0.75 7 3 C7.125 5.625 7.125 5.625 7 8 C6.34 7.34 5.68 6.68 5 6 C2.39719432 6.32041397 2.39719432 6.32041397 0 7 C0.875 3.125 0.875 3.125 2 2 C1.34 1.34 0.68 0.68 0 0 Z " fill="#BABABA" transform="translate(212,282)"/>
<path d="M0 0 C2.64 0.33 5.28 0.66 8 1 C7.67 2.65 7.34 4.3 7 6 C4.625 6.125 4.625 6.125 2 6 C1.34 5.34 0.68 4.68 0 4 C0 2.68 0 1.36 0 0 Z " fill="#585858" transform="translate(210,357)"/>
<path d="M0 0 C0.66 0 1.32 0 2 0 C2 3.3 2 6.6 2 10 C3.65 10 5.3 10 7 10 C7 10.66 7 11.32 7 12 C4.69 12 2.38 12 0 12 C0 8.04 0 4.08 0 0 Z " fill="#9F9F9F" transform="translate(275,353)"/>
<path d="M0 0 C0.33 0.99 0.66 1.98 1 3 C0.07767578 3.09087891 0.07767578 3.09087891 -0.86328125 3.18359375 C-1.67152344 3.26738281 -2.47976562 3.35117187 -3.3125 3.4375 C-4.11300781 3.51871094 -4.91351563 3.59992188 -5.73828125 3.68359375 C-8.16087179 3.95265693 -8.16087179 3.95265693 -11 5 C-10.625 3.0625 -10.625 3.0625 -10 1 C-6.78548731 -0.60725635 -3.56387464 -0.05748185 0 0 Z " fill="#ECECEC" transform="translate(246,272)"/>
<path d="M0 0 C1.65 0 3.3 0 5 0 C5.38218767 1.65614657 5.71395102 3.32457024 6 5 C5 6 5 6 2.4375 6.0625 C1.2309375 6.0315625 1.2309375 6.0315625 0 6 C0 4.02 0 2.04 0 0 Z " fill="#5E5E5E" transform="translate(287,167)"/>
<path d="M0 0 C1.65 0 3.3 0 5 0 C5.38218767 1.65614657 5.71395102 3.32457024 6 5 C5 6 5 6 2.4375 6.0625 C1.2309375 6.0315625 1.2309375 6.0315625 0 6 C0 4.02 0 2.04 0 0 Z " fill="#5F5F5F" transform="translate(222,167)"/>
<path d="M0 0 C1.65 0 3.3 0 5 0 C5.38218767 1.65614657 5.71395102 3.32457024 6 5 C5 6 5 6 2.4375 6.0625 C1.2309375 6.0315625 1.2309375 6.0315625 0 6 C0 4.02 0 2.04 0 0 Z " fill="#5D5D5D" transform="translate(234,146)"/>
<path d="M0 0 C2.4375 2.0625 2.4375 2.0625 4 4 C1.83125748 3.49396008 0.00032373 3.00016187 -2 2 C-6.55547083 1.74214316 -9.8780636 2.00148538 -14 4 C-14 3.34 -14 2.68 -14 2 C-8.87518188 -0.61470312 -5.77346314 -1.633999 0 0 Z " fill="#727272" transform="translate(291,276)"/>
<path d="M0 0 C1.875 0.625 1.875 0.625 4 2 C5.25 5.125 5.25 5.125 6 8 C5.1646875 7.505 5.1646875 7.505 4.3125 7 C1.69715478 5.8690399 -0.1806646 5.84337026 -3 6 C-1.125 1.125 -1.125 1.125 0 0 Z " fill="#616161" transform="translate(238,228)"/>
<path d="M0 0 C2.64 0.33 5.28 0.66 8 1 C7.67 2.65 7.34 4.3 7 6 C4.625 6.125 4.625 6.125 2 6 C1.34 5.34 0.68 4.68 0 4 C0 2.68 0 1.36 0 0 Z " fill="#5B5B5B" transform="translate(155,357)"/>
<path d="M0 0 C2.64 0 5.28 0 8 0 C8 1.32 8 2.64 8 4 C5.36 4 2.72 4 0 4 C0 2.68 0 1.36 0 0 Z " fill="#D2D2D2" transform="translate(276,259)"/>
<path d="M0 0 C4.92127034 -0.16682272 8.50343896 -0.24828052 13 2 C12.01 2.495 12.01 2.495 11 3 C11 3.66 11 4.32 11 5 C7.7 4.67 4.4 4.34 1 4 C1 3.67 1 3.34 1 3 C2.65 2.67 4.3 2.34 6 2 C3.03 1.505 3.03 1.505 0 1 C0 0.67 0 0.34 0 0 Z " fill="#D4D4D4" transform="translate(210,272)"/>
<path d="M0 0 C1.2065625 0.0309375 1.2065625 0.0309375 2.4375 0.0625 C1.4475 0.5575 1.4475 0.5575 0.4375 1.0625 C0.7675 2.0525 1.0975 3.0425 1.4375 4.0625 C0.7775 4.0625 0.1175 4.0625 -0.5625 4.0625 C-0.5625 9.6725 -0.5625 15.2825 -0.5625 21.0625 C-0.8925 21.0625 -1.2225 21.0625 -1.5625 21.0625 C-1.5625 14.7925 -1.5625 8.5225 -1.5625 2.0625 C-2.2225 1.7325 -2.8825 1.4025 -3.5625 1.0625 C-2.5625 0.0625 -2.5625 0.0625 0 0 Z " fill="#CCCCCC" transform="translate(199.5625,258.9375)"/>
<path d="M0 0 C0 0.99 0 1.98 0 3 C0.66 3.33 1.32 3.66 2 4 C1.34 4 0.68 4 0 4 C0 4.99 0 5.98 0 7 C-2.4375 6.1875 -2.4375 6.1875 -5 5 C-5.33 4.01 -5.66 3.02 -6 2 C-2.25 0 -2.25 0 0 0 Z " fill="#E0E0E0" transform="translate(246,256)"/>
<path d="M0 0 C0.66 0 1.32 0 2 0 C1.46930939 3.82097239 0.50298434 6.06171403 -2 9 C-2.99 8.34 -3.98 7.68 -5 7 C-1.125 1.125 -1.125 1.125 0 0 Z " fill="#DEDEDE" transform="translate(219,218)"/>
<path d="M0 0 C0.66 0 1.32 0 2 0 C1.95875 1.11375 1.9175 2.2275 1.875 3.375 C1.58878141 7.04366025 1.58878141 7.04366025 4 9 C5.31747324 9.69748583 6.64914193 10.36959957 8 11 C5.1875 11.25 5.1875 11.25 2 11 C-0.67535978 8.68135486 -0.97253 7.35024244 -1.25 3.8125 C-1 1 -1 1 0 0 Z " fill="#686868" transform="translate(236,283)"/>
<path d="M0 0 C0.99 0.33 1.98 0.66 3 1 C3.94921875 3.06640625 3.94921875 3.06640625 4.6875 5.5625 C4.93886719 6.38878906 5.19023437 7.21507812 5.44921875 8.06640625 C5.63097656 8.70449219 5.81273437 9.34257812 6 10 C5.01 10.33 4.02 10.66 3 11 C2.49632243 9.54293274 1.99717444 8.08429904 1.5 6.625 C1.2215625 5.81289062 0.943125 5.00078125 0.65625 4.1640625 C0 2 0 2 0 0 Z " fill="#D0D0D0" transform="translate(378,197)"/>
<path d="M0 0 C0.99 0 1.98 0 3 0 C3.33 0.99 3.66 1.98 4 3 C3.01 3 2.02 3 1 3 C1.34786708 4.97536745 1.34786708 4.97536745 2 7 C2.66 7.33 3.32 7.66 4 8 C2.35 8.66 0.7 9.32 -1 10 C-1.33 8.68 -1.66 7.36 -2 6 C-1.34 6 -0.68 6 0 6 C0 4.02 0 2.04 0 0 Z " fill="#575757" transform="translate(262,174)"/>
<path d="M0 0 C2.4375 0.25 2.4375 0.25 5 1 C7 4 7 4 7 8 C6.01 7.67 5.02 7.34 4 7 C3.855625 6.360625 3.71125 5.72125 3.5625 5.0625 C3.19895007 2.79688294 3.19895007 2.79688294 0.9375 1.75 C0.298125 1.5025 -0.34125 1.255 -1 1 C-0.67 0.67 -0.34 0.34 0 0 Z " fill="#EBEBEB" transform="translate(238,225)"/>
<path d="M0 0 C1.65 0.33 3.3 0.66 5 1 C5 2.32 5 3.64 5 5 C2.125 5.125 2.125 5.125 -1 5 C-1.66 4.34 -2.32 3.68 -3 3 C-2.01 3 -1.02 3 0 3 C0 2.01 0 1.02 0 0 Z " fill="#545454" transform="translate(260,152)"/>
<path d="M0 0 C0.66 0 1.32 0 2 0 C2.67119549 1.4562545 3.33681807 2.91507867 4 4.375 C4.556875 5.59316406 4.556875 5.59316406 5.125 6.8359375 C6 9 6 9 6 11 C5.34 11 4.68 11 4 11 C2.74335022 8.09399739 2 6.20395416 2 3 C1.34 3 0.68 3 0 3 C0 3.66 0 4.32 0 5 C-0.66 4.67 -1.32 4.34 -2 4 C-1.34 2.68 -0.68 1.36 0 0 Z " fill="#B6B6B6" transform="translate(234,337)"/>
<path d="M0 0 C0.66 0 1.32 0 2 0 C1.33501617 4.38889325 -0.18757677 7.9811485 -2 12 C-3.12377697 8.69564916 -2.89554742 6.9493138 -1.5625 3.75 C-1.27503906 3.04359375 -0.98757812 2.3371875 -0.69140625 1.609375 C-0.46324219 1.07828125 -0.23507813 0.5471875 0 0 Z " fill="#E7E7E7" transform="translate(123,197)"/>
<path d="M0 0 C2.14699969 3.44175522 2.09856795 5.7720292 1.625 9.75 C1.51414062 10.73484375 1.40328125 11.7196875 1.2890625 12.734375 C1.19367188 13.48203125 1.09828125 14.2296875 1 15 C0.67 15 0.34 15 0 15 C-1.33257403 4.44191344 -1.33257403 4.44191344 0 0 Z " fill="#C1C1C1" transform="translate(385,283)"/>
<path d="M0 0 C0 2.64 0 5.28 0 8 C-0.99 8.33 -1.98 8.66 -3 9 C-3.66 8.34 -4.32 7.68 -5 7 C-4.34 7 -3.68 7 -3 7 C-3 5.02 -3 3.04 -3 1 C-1 0 -1 0 0 0 Z " fill="#ECECEC" transform="translate(307,269)"/>
<path d="M0 0 C-0.33 0.99 -0.66 1.98 -1 3 C-2.98 3.33 -4.96 3.66 -7 4 C-7 2.68 -7 1.36 -7 0 C-4.3333581 -1.33332095 -2.83319697 -0.67102033 0 0 Z " fill="#4D4D4D" transform="translate(259,355)"/>
<path d="M0 0 C0.99 0 1.98 0 3 0 C3.33 0.99 3.66 1.98 4 3 C3.34 3 2.68 3 2 3 C1.67 3.99 1.34 4.98 1 6 C0.34 5.67 -0.32 5.34 -1 5 C-1.33 5.66 -1.66 6.32 -2 7 C-2.125 4.625 -2.125 4.625 -2 2 C-1.34 1.34 -0.68 0.68 0 0 Z " fill="#D7D7D7" transform="translate(239,283)"/>
<path d="M0 0 C0 1.98 0 3.96 0 6 C-0.66 6 -1.32 6 -2 6 C-2.33 6.66 -2.66 7.32 -3 8 C-4 7 -4 7 -4.0625 3.9375 C-4.041875 2.968125 -4.02125 1.99875 -4 1 C-1 0 -1 0 0 0 Z " fill="#E3E3E3" transform="translate(229,240)"/>
<path d="M0 0 C0.99 0 1.98 0 3 0 C2.42415568 2.38564077 1.77772405 4.66682784 1 7 C0.01 7 -0.98 7 -2 7 C-1.125 1.125 -1.125 1.125 0 0 Z " fill="#E2E2E2" transform="translate(232,231)"/>
<path d="M0 0 C0.33 0 0.66 0 1 0 C1.33 2.31 1.66 4.62 2 7 C2.33 7 2.66 7 3 7 C3.25 9.3125 3.25 9.3125 3 12 C1.68 12.99 0.36 13.98 -1 15 C-0.67 10.05 -0.34 5.1 0 0 Z " fill="#6B6B6B" transform="translate(177,353)"/>
<path d="M0 0 C0.66 0.66 1.32 1.32 2 2 C1.34 2 0.68 2 0 2 C0 1.34 0 0.68 0 0 Z M-3 2 C-0.9375 2.4375 -0.9375 2.4375 1 3 C0.34 5.31 -0.32 7.62 -1 10 C-3.36556709 7.63443291 -3.58244041 6.25696479 -4 3 C-3.67 2.67 -3.34 2.34 -3 2 Z " fill="#F4F4F4" transform="translate(296,279)"/>
<path d="M0 0 C-0.69941596 3.14737182 -1.76078698 6.02588876 -3 9 C-3.66 8.67 -4.32 8.34 -5 8 C-5.1875 5.125 -5.1875 5.125 -5 2 C-2 0 -2 0 0 0 Z " fill="#F1F1F1" transform="translate(237,280)"/>
<path d="M0 0 C0.75 1.75 0.75 1.75 1 4 C-0.625 6.25 -0.625 6.25 -3 8 C-5.75 8.25 -5.75 8.25 -8 8 C-6 6 -6 6 -4 5.125 C-1.57978596 3.7636296 -1.01381378 2.53453445 0 0 Z " fill="#A4A4A4" transform="translate(261,357)"/>
<path d="M0 0 C2.86724686 0.57344937 3.8614515 0.8614515 6 3 C6.33 3.66 6.66 4.32 7 5 C4 6 4 6 1.8125 5.0625 C1.214375 4.711875 0.61625 4.36125 0 4 C0 2.68 0 1.36 0 0 Z " fill="#656565" transform="translate(211,344)"/>
<path d="M0 0 C3.93846154 3.32307692 3.93846154 3.32307692 4.25 6.75 C4.1675 7.4925 4.085 8.235 4 9 C3.34 9 2.68 9 2 9 C0.50178941 5.62902617 0 3.79557881 0 0 Z " fill="#D7D7D7" transform="translate(121,303)"/>
<path d="M0 0 C0.99 0.33 1.98 0.66 3 1 C2.625 2.9375 2.625 2.9375 2 5 C1.01 5.495 1.01 5.495 0 6 C-1.13350534 8.01669827 -1.13350534 8.01669827 -2 10 C-3 8 -3 8 -2.44140625 6.0546875 C-2.15136719 5.33539063 -1.86132812 4.61609375 -1.5625 3.875 C-1.27503906 3.15054688 -0.98757812 2.42609375 -0.69140625 1.6796875 C-0.46324219 1.12539062 -0.23507813 0.57109375 0 0 Z " fill="#616161" transform="translate(124,200)"/>
<path d="M0 0 C1.61949011 2.57213134 2.04408751 3.67669159 1.625 6.75 C1.41875 7.4925 1.2125 8.235 1 9 C-1.15377564 6.37801226 -2.40072174 4.35595828 -3 1 C-2.01 0.67 -1.02 0.34 0 0 Z " fill="#575757" transform="translate(244,171)"/>
<path d="M0 0 C1.485 0.99 1.485 0.99 3 2 C3 2.66 3 3.32 3 4 C3.99 3.67 4.98 3.34 6 3 C6 3.66 6 4.32 6 5 C4.68 5 3.36 5 2 5 C2 5.66 2 6.32 2 7 C1.01 6.67 0.02 6.34 -1 6 C-0.67 4.02 -0.34 2.04 0 0 Z " fill="#565656" transform="translate(180,360)"/>
<path d="M0 0 C1.7074998 1.28062485 3.37373596 2.61767557 5 4 C5 4.66 5 5.32 5 6 C4.34 6 3.68 6 3 6 C2.67 6.66 2.34 7.32 2 8 C0.4375 5.6875 0.4375 5.6875 -1 3 C-0.67 2.01 -0.34 1.02 0 0 Z " fill="#D5D5D5" transform="translate(295,246)"/>
<path d="M0 0 C0.66 0.33 1.32 0.66 2 1 C2.625 3.5625 2.625 3.5625 3 6 C1.35 6 -0.3 6 -2 6 C-1.125 1.125 -1.125 1.125 0 0 Z " fill="#5C5C5C" transform="translate(237,169)"/>
<path d="M0 0 C1.2077558 3.62326739 0.54311128 4.64146369 -1 8 C-1.33 7.34 -1.66 6.68 -2 6 C-3.65 6.66 -5.3 7.32 -7 8 C-6.02133662 6.85373678 -5.04205413 5.70800212 -4.0625 4.5625 C-3.51722656 3.92441406 -2.97195312 3.28632813 -2.41015625 2.62890625 C-1.63204305 1.73008851 -0.84063472 0.84063472 0 0 Z " fill="#565656" transform="translate(246,146)"/>
<path d="M0 0 C1.65 0 3.3 0 5 0 C5 1.32 5 2.64 5 4 C3.35 4 1.7 4 0 4 C0 2.68 0 1.36 0 0 Z " fill="#5B5B5B" transform="translate(189,359)"/>
<path d="M0 0 C1.32 0 2.64 0 4 0 C4 1.65 4 3.3 4 5 C2.68 5 1.36 5 0 5 C0 3.35 0 1.7 0 0 Z " fill="#5E5E5E" transform="translate(179,354)"/>
<path d="M0 0 C0.99 0 1.98 0 3 0 C3 2.64 3 5.28 3 8 C2.34 8 1.68 8 1 8 C-0.35439668 5.29120665 -0.06501451 2.99066732 0 0 Z " fill="#E3E3E3" transform="translate(281,284)"/>
<path d="M0 0 C4 2 4 2 5 3 C5.04063832 4.66617115 5.042721 6.33388095 5 8 C4.01 8.33 3.02 8.66 2 9 C1.34 6.03 0.68 3.06 0 0 Z " fill="#8D8D8D" transform="translate(288,281)"/>
<path d="M0 0 C0.33 0.99 0.66 1.98 1 3 C1.99 3.33 2.98 3.66 4 4 C3.01 4 2.02 4 1 4 C1 6.64 1 9.28 1 12 C0.01 11.67 -0.98 11.34 -2 11 C-1.34 11 -0.68 11 0 11 C-0.66 8.36 -1.32 5.72 -2 3 C-1.34 3 -0.68 3 0 3 C0 2.01 0 1.02 0 0 Z " fill="#828282" transform="translate(229,235)"/>
<path d="M0 0 C0.66 0 1.32 0 2 0 C2.66 1.98 3.32 3.96 4 6 C2.35 6 0.7 6 -1 6 C-0.67 4.02 -0.34 2.04 0 0 Z " fill="#5C5C5C" transform="translate(248,148)"/>
<path d="M0 0 C1.65 1.65 3.3 3.3 5 5 C1.125 7 1.125 7 0 7 C0 4.69 0 2.38 0 0 Z " fill="#505050" transform="translate(275,341)"/>
<path d="M0 0 C2.475 0.495 2.475 0.495 5 1 C4.67 2.98 4.34 4.96 4 7 C3.01 7 2.02 7 1 7 C1.33 5.02 1.66 3.04 2 1 C1.34 0.67 0.68 0.34 0 0 Z " fill="#A5A5A5" transform="translate(240,282)"/>
<path d="M0 0 C1.9375 0.75 1.9375 0.75 4 2 C4.75 4.125 4.75 4.125 5 6 C3.68 5.67 2.36 5.34 1 5 C0.67 3.35 0.34 1.7 0 0 Z " fill="#E7E7E7" transform="translate(291,243)"/>
<path d="M0 0 C0.33 0.99 0.66 1.98 1 3 C-1.64 4.98 -4.28 6.96 -7 9 C-5.04783565 5.09567131 -3.12613393 2.96160056 0 0 Z " fill="#8D8D8D" transform="translate(139,141)"/>
<path d="M0 0 C2.475 0.495 2.475 0.495 5 1 C4.67 1.99 4.34 2.98 4 4 C2.68 4 1.36 4 0 4 C0 2.68 0 1.36 0 0 Z " fill="#5E5E5E" transform="translate(189,354)"/>
<path d="M0 0 C0.33 0.66 0.66 1.32 1 2 C1.66 2.33 2.32 2.66 3 3 C1.68 4.32 0.36 5.64 -1 7 C-1.625 5.1875 -1.625 5.1875 -2 3 C-1.34 2.01 -0.68 1.02 0 0 Z " fill="#E1E1E1" transform="translate(220,290)"/>
<path d="M0 0 C0.66 0 1.32 0 2 0 C2.66 1.98 3.32 3.96 4 6 C2.68 6 1.36 6 0 6 C0 4.02 0 2.04 0 0 Z " fill="#F0F0F0" transform="translate(276,286)"/>
<path d="M0 0 C0.99 0 1.98 0 3 0 C2.67 2.97 2.34 5.94 2 9 C0 6 0 6 -1 3 C-0.67 2.01 -0.34 1.02 0 0 Z " fill="#717171" transform="translate(405,279)"/>
<path d="M0 0 C0 0.33 0 0.66 0 1 C-1.1446875 1.1546875 -1.1446875 1.1546875 -2.3125 1.3125 C-5.17059424 2.04364039 -6.15742885 2.76951913 -8 5 C-8 4.34 -8 3.68 -8 3 C-8.66 2.67 -9.32 2.34 -10 2 C-6.3558226 -0.4294516 -4.28758728 -0.16179575 0 0 Z " fill="#D4D4D4" transform="translate(245,277)"/>
<path d="M0 0 C0.66 0.99 1.32 1.98 2 3 C0.625 5.5 0.625 5.5 -1 8 C-1.66 8 -2.32 8 -3 8 C-1.125 2.25 -1.125 2.25 0 0 Z " fill="#808080" transform="translate(110,180)"/>
<path d="M0 0 C0.6875 1.8125 0.6875 1.8125 1 4 C-0.375 5.5625 -0.375 5.5625 -2 7 C-2.33 7.99 -2.66 8.98 -3 10 C-3.66 10 -4.32 10 -5 10 C-3.66511872 6.40608886 -2.03977277 3.24509304 0 0 Z " fill="#939393" transform="translate(116,170)"/>
<path d="M0 0 C2 1.375 2 1.375 4 3 C4 3.66 4 4.32 4 5 C3.01 5 2.02 5 1 5 C0.67 5.99 0.34 6.98 0 8 C0 5.36 0 2.72 0 0 Z " fill="#686868" transform="translate(292,340)"/>
<path d="M0 0 C0.33 0.99 0.66 1.98 1 3 C0.01 4.485 0.01 4.485 -1 6 C-1.66 6 -2.32 6 -3 6 C-3 4.35 -3 2.7 -3 1 C-2.01 0.67 -1.02 0.34 0 0 Z " fill="#E7E7E7" transform="translate(216,225)"/>
<path d="M0 0 C0.66 0.33 1.32 0.66 2 1 C-0.3125 3.5 -0.3125 3.5 -3 6 C-3.99 6 -4.98 6 -6 6 C-4.02 4.02 -2.04 2.04 0 0 Z " fill="#939393" transform="translate(146,134)"/>
</svg>
